<?xml version="1.0" encoding="utf-8" standalone="no"?>
<!DOCTYPE svg PUBLIC "-//W3C//DTD SVG 1.1//EN"
  "http://www.w3.org/Graphics/SVG/1.1/DTD/svg11.dtd">
<svg xmlns:xlink="http://www.w3.org/1999/xlink" width="777.6pt" height="338.4pt" viewBox="0 0 777.6 338.4" xmlns="http://www.w3.org/2000/svg" version="1.1">
 <metadata>
  <rdf:RDF xmlns:dc="http://purl.org/dc/elements/1.1/" xmlns:cc="http://creativecommons.org/ns#" xmlns:rdf="http://www.w3.org/1999/02/22-rdf-syntax-ns#">
   <cc:Work>
    <dc:type rdf:resource="http://purl.org/dc/dcmitype/StillImage"/>
    <dc:format>image/svg+xml</dc:format>
    <dc:creator>
     <cc:Agent>
      <dc:title>Matplotlib v3.11.2, https://matplotlib.org/</dc:title>
     </cc:Agent>
    </dc:creator>
   </cc:Work>
  </rdf:RDF>
 </metadata>
 <defs>
  <style type="text/css">*{stroke-linejoin: round; stroke-linecap: butt}</style>
 </defs>
 <g id="figure_1">
  <g id="patch_1">
   <path d="M 0 338.4 
L 777.6 338.4 
L 777.6 0 
L 0 0 
z
" style="fill: #ffffff"/>
  </g>
  <g id="axes_1">
   <g id="patch_2">
    <path d="M 67.402344 275.973656 
L 389.88 275.973656 
L 389.88 76.274813 
L 67.402344 76.274813 
z
" style="fill: #ffffff"/>
   </g>
   <g id="matplotlib.axis_1">
    <g id="xtick_1">
     <g id="line2d_1">
      <path d="M 82.060419 275.973656 
L 82.060419 76.274813 
" clip-path="url(#p40b6695021)" style="fill: none; stroke: #b0b0b0; stroke-opacity: 0.25; stroke-width: 0.8; stroke-linecap: square"/>
     </g>
     <g id="line2d_2">
      <defs>
       <path id="m3ca89f1fc6" d="M 0 0 
L 0 3.5 
" style="stroke: #000000; stroke-width: 0.8"/>
      </defs>
      <g>
       <use xlink:href="#m3ca89f1fc6" x="82.060419" y="275.973656" style="stroke: #000000; stroke-width: 0.8"/>
      </g>
     </g>
     <g id="text_1">
      <!-- 3 -->
      <g transform="translate(78.879169 290.571313) scale(0.1 -0.1)">
       <defs>
        <path id="DejaVuSans-16" d="M 2597 2516 
Q 3050 2419 3304 2112 
Q 3559 1806 3559 1356 
Q 3559 666 3084 287 
Q 2609 -91 1734 -91 
Q 1441 -91 1130 -33 
Q 819 25 488 141 
L 488 750 
Q 750 597 1062 519 
Q 1375 441 1716 441 
Q 2309 441 2620 675 
Q 2931 909 2931 1356 
Q 2931 1769 2642 2001 
Q 2353 2234 1838 2234 
L 1294 2234 
L 1294 2753 
L 1863 2753 
Q 2328 2753 2575 2939 
Q 2822 3125 2822 3475 
Q 2822 3834 2567 4026 
Q 2313 4219 1838 4219 
Q 1578 4219 1281 4162 
Q 984 4106 628 3988 
L 628 4550 
Q 988 4650 1302 4700 
Q 1616 4750 1894 4750 
Q 2613 4750 3031 4423 
Q 3450 4097 3450 3541 
Q 3450 3153 3228 2886 
Q 3006 2619 2597 2516 
z
" transform="scale(0.015625)"/>
       </defs>
       <use xlink:href="#DejaVuSans-16"/>
      </g>
     </g>
    </g>
    <g id="xtick_2">
     <g id="line2d_3">
      <path d="M 375.221925 275.973656 
L 375.221925 76.274813 
" clip-path="url(#p40b6695021)" style="fill: none; stroke: #b0b0b0; stroke-opacity: 0.25; stroke-width: 0.8; stroke-linecap: square"/>
     </g>
     <g id="line2d_4">
      <g>
       <use xlink:href="#m3ca89f1fc6" x="375.221925" y="275.973656" style="stroke: #000000; stroke-width: 0.8"/>
      </g>
     </g>
     <g id="text_2">
      <!-- 5 -->
      <g transform="translate(372.040675 290.571313) scale(0.1 -0.1)">
       <defs>
        <path id="DejaVuSans-18" d="M 691 4666 
L 3169 4666 
L 3169 4134 
L 1269 4134 
L 1269 2991 
Q 1406 3038 1543 3061 
Q 1681 3084 1819 3084 
Q 2600 3084 3056 2656 
Q 3513 2228 3513 1497 
Q 3513 744 3044 326 
Q 2575 -91 1722 -91 
Q 1428 -91 1123 -41 
Q 819 9 494 109 
L 494 744 
Q 775 591 1075 516 
Q 1375 441 1709 441 
Q 2250 441 2565 725 
Q 2881 1009 2881 1497 
Q 2881 1984 2565 2268 
Q 2250 2553 1709 2553 
Q 1456 2553 1204 2497 
Q 953 2441 691 2322 
L 691 4666 
z
" transform="scale(0.015625)"/>
       </defs>
       <use xlink:href="#DejaVuSans-18"/>
      </g>
     </g>
    </g>
    <g id="text_3">
     <!-- Provisional collar finish allowance (g) -->
     <g transform="translate(136.017734 304.572094) scale(0.1 -0.1)">
      <defs>
       <path id="DejaVuSans-33" d="M 1259 4147 
L 1259 2394 
L 2053 2394 
Q 2494 2394 2734 2622 
Q 2975 2850 2975 3272 
Q 2975 3691 2734 3919 
Q 2494 4147 2053 4147 
L 1259 4147 
z
M 628 4666 
L 2053 4666 
Q 2838 4666 3239 4311 
Q 3641 3956 3641 3272 
Q 3641 2581 3239 2228 
Q 2838 1875 2053 1875 
L 1259 1875 
L 1259 0 
L 628 0 
L 628 4666 
z
" transform="scale(0.015625)"/>
       <path id="DejaVuSans-55" d="M 2631 2963 
Q 2534 3019 2420 3045 
Q 2306 3072 2169 3072 
Q 1681 3072 1420 2755 
Q 1159 2438 1159 1844 
L 1159 0 
L 581 0 
L 581 3500 
L 1159 3500 
L 1159 2956 
Q 1341 3275 1631 3429 
Q 1922 3584 2338 3584 
Q 2397 3584 2469 3576 
Q 2541 3569 2628 3553 
L 2631 2963 
z
" transform="scale(0.015625)"/>
       <path id="DejaVuSans-52" d="M 1959 3097 
Q 1497 3097 1228 2736 
Q 959 2375 959 1747 
Q 959 1119 1226 758 
Q 1494 397 1959 397 
Q 2419 397 2687 759 
Q 2956 1122 2956 1747 
Q 2956 2369 2687 2733 
Q 2419 3097 1959 3097 
z
M 1959 3584 
Q 2709 3584 3137 3096 
Q 3566 2609 3566 1747 
Q 3566 888 3137 398 
Q 2709 -91 1959 -91 
Q 1206 -91 779 398 
Q 353 888 353 1747 
Q 353 2609 779 3096 
Q 1206 3584 1959 3584 
z
" transform="scale(0.015625)"/>
       <path id="DejaVuSans-59" d="M 191 3500 
L 800 3500 
L 1894 563 
L 2988 3500 
L 3597 3500 
L 2284 0 
L 1503 0 
L 191 3500 
z
" transform="scale(0.015625)"/>
       <path id="DejaVuSans-4c" d="M 603 3500 
L 1178 3500 
L 1178 0 
L 603 0 
L 603 3500 
z
M 603 4863 
L 1178 4863 
L 1178 4134 
L 603 4134 
L 603 4863 
z
" transform="scale(0.015625)"/>
       <path id="DejaVuSans-56" d="M 2834 3397 
L 2834 2853 
Q 2591 2978 2328 3040 
Q 2066 3103 1784 3103 
Q 1356 3103 1142 2972 
Q 928 2841 928 2578 
Q 928 2378 1081 2264 
Q 1234 2150 1697 2047 
L 1894 2003 
Q 2506 1872 2764 1633 
Q 3022 1394 3022 966 
Q 3022 478 2636 193 
Q 2250 -91 1575 -91 
Q 1294 -91 989 -36 
Q 684 19 347 128 
L 347 722 
Q 666 556 975 473 
Q 1284 391 1588 391 
Q 1994 391 2212 530 
Q 2431 669 2431 922 
Q 2431 1156 2273 1281 
Q 2116 1406 1581 1522 
L 1381 1569 
Q 847 1681 609 1914 
Q 372 2147 372 2553 
Q 372 3047 722 3315 
Q 1072 3584 1716 3584 
Q 2034 3584 2315 3537 
Q 2597 3491 2834 3397 
z
" transform="scale(0.015625)"/>
       <path id="DejaVuSans-51" d="M 3513 2113 
L 3513 0 
L 2938 0 
L 2938 2094 
Q 2938 2591 2744 2837 
Q 2550 3084 2163 3084 
Q 1697 3084 1428 2787 
Q 1159 2491 1159 1978 
L 1159 0 
L 581 0 
L 581 3500 
L 1159 3500 
L 1159 2956 
Q 1366 3272 1645 3428 
Q 1925 3584 2291 3584 
Q 2894 3584 3203 3211 
Q 3513 2838 3513 2113 
z
" transform="scale(0.015625)"/>
       <path id="DejaVuSans-44" d="M 2194 1759 
Q 1497 1759 1228 1600 
Q 959 1441 959 1056 
Q 959 750 1161 570 
Q 1363 391 1709 391 
Q 2188 391 2477 730 
Q 2766 1069 2766 1631 
L 2766 1759 
L 2194 1759 
z
M 3341 1997 
L 3341 0 
L 2766 0 
L 2766 531 
Q 2569 213 2275 61 
Q 1981 -91 1556 -91 
Q 1019 -91 701 211 
Q 384 513 384 1019 
Q 384 1609 779 1909 
Q 1175 2209 1959 2209 
L 2766 2209 
L 2766 2266 
Q 2766 2663 2505 2880 
Q 2244 3097 1772 3097 
Q 1472 3097 1187 3025 
Q 903 2953 641 2809 
L 641 3341 
Q 956 3463 1253 3523 
Q 1550 3584 1831 3584 
Q 2591 3584 2966 3190 
Q 3341 2797 3341 1997 
z
" transform="scale(0.015625)"/>
       <path id="DejaVuSans-4f" d="M 603 4863 
L 1178 4863 
L 1178 0 
L 603 0 
L 603 4863 
z
" transform="scale(0.015625)"/>
       <path id="DejaVuSans-3" transform="scale(0.015625)"/>
       <path id="DejaVuSans-46" d="M 3122 3366 
L 3122 2828 
Q 2878 2963 2633 3030 
Q 2388 3097 2138 3097 
Q 1578 3097 1268 2742 
Q 959 2388 959 1747 
Q 959 1106 1268 751 
Q 1578 397 2138 397 
Q 2388 397 2633 464 
Q 2878 531 3122 666 
L 3122 134 
Q 2881 22 2623 -34 
Q 2366 -91 2075 -91 
Q 1284 -91 818 406 
Q 353 903 353 1747 
Q 353 2603 823 3093 
Q 1294 3584 2113 3584 
Q 2378 3584 2631 3529 
Q 2884 3475 3122 3366 
z
" transform="scale(0.015625)"/>
       <path id="DejaVuSans-13af" d="M 3431 3500 
L 3431 0 
L 2853 0 
L 2853 3053 
L 1275 3053 
L 1275 0 
L 697 0 
L 697 3053 
L 147 3053 
L 147 3500 
L 697 3500 
L 697 3744 
Q 697 4316 967 4589 
Q 1238 4863 1797 4863 
L 2375 4863 
L 2375 4384 
L 1825 4384 
Q 1516 4384 1395 4259 
Q 1275 4134 1275 3809 
L 1275 3500 
L 3431 3500 
z
M 2853 4856 
L 3431 4856 
L 3431 4128 
L 2853 4128 
L 2853 4856 
z
" transform="scale(0.015625)"/>
       <path id="DejaVuSans-4b" d="M 3513 2113 
L 3513 0 
L 2938 0 
L 2938 2094 
Q 2938 2591 2744 2837 
Q 2550 3084 2163 3084 
Q 1697 3084 1428 2787 
Q 1159 2491 1159 1978 
L 1159 0 
L 581 0 
L 581 4863 
L 1159 4863 
L 1159 2956 
Q 1366 3272 1645 3428 
Q 1925 3584 2291 3584 
Q 2894 3584 3203 3211 
Q 3513 2838 3513 2113 
z
" transform="scale(0.015625)"/>
       <path id="DejaVuSans-5a" d="M 269 3500 
L 844 3500 
L 1563 769 
L 2278 3500 
L 2956 3500 
L 3675 769 
L 4391 3500 
L 4966 3500 
L 4050 0 
L 3372 0 
L 2619 2869 
L 1863 0 
L 1184 0 
L 269 3500 
z
" transform="scale(0.015625)"/>
       <path id="DejaVuSans-48" d="M 3597 1894 
L 3597 1613 
L 953 1613 
Q 991 1019 1311 708 
Q 1631 397 2203 397 
Q 2534 397 2845 478 
Q 3156 559 3463 722 
L 3463 178 
Q 3153 47 2828 -22 
Q 2503 -91 2169 -91 
Q 1331 -91 842 396 
Q 353 884 353 1716 
Q 353 2575 817 3079 
Q 1281 3584 2069 3584 
Q 2775 3584 3186 3129 
Q 3597 2675 3597 1894 
z
M 3022 2063 
Q 3016 2534 2758 2815 
Q 2500 3097 2075 3097 
Q 1594 3097 1305 2825 
Q 1016 2553 972 2059 
L 3022 2063 
z
" transform="scale(0.015625)"/>
       <path id="DejaVuSans-b" d="M 1984 4856 
Q 1566 4138 1362 3434 
Q 1159 2731 1159 2009 
Q 1159 1288 1364 580 
Q 1569 -128 1984 -844 
L 1484 -844 
Q 1016 -109 783 600 
Q 550 1309 550 2009 
Q 550 2706 781 3412 
Q 1013 4119 1484 4856 
L 1984 4856 
z
" transform="scale(0.015625)"/>
       <path id="DejaVuSans-4a" d="M 2906 1791 
Q 2906 2416 2648 2759 
Q 2391 3103 1925 3103 
Q 1463 3103 1205 2759 
Q 947 2416 947 1791 
Q 947 1169 1205 825 
Q 1463 481 1925 481 
Q 2391 481 2648 825 
Q 2906 1169 2906 1791 
z
M 3481 434 
Q 3481 -459 3084 -895 
Q 2688 -1331 1869 -1331 
Q 1566 -1331 1297 -1286 
Q 1028 -1241 775 -1147 
L 775 -588 
Q 1028 -725 1275 -790 
Q 1522 -856 1778 -856 
Q 2344 -856 2625 -561 
Q 2906 -266 2906 331 
L 2906 616 
Q 2728 306 2450 153 
Q 2172 0 1784 0 
Q 1141 0 747 490 
Q 353 981 353 1791 
Q 353 2603 747 3093 
Q 1141 3584 1784 3584 
Q 2172 3584 2450 3431 
Q 2728 3278 2906 2969 
L 2906 3500 
L 3481 3500 
L 3481 434 
z
" transform="scale(0.015625)"/>
       <path id="DejaVuSans-c" d="M 513 4856 
L 1013 4856 
Q 1481 4119 1714 3412 
Q 1947 2706 1947 2009 
Q 1947 1309 1714 600 
Q 1481 -109 1013 -844 
L 513 -844 
Q 928 -128 1133 580 
Q 1338 1288 1338 2009 
Q 1338 2731 1133 3434 
Q 928 4138 513 4856 
z
" transform="scale(0.015625)"/>
      </defs>
      <use xlink:href="#DejaVuSans-33"/>
      <use xlink:href="#DejaVuSans-55" transform="translate(58.546875 0)"/>
      <use xlink:href="#DejaVuSans-52" transform="translate(97.453125 0)"/>
      <use xlink:href="#DejaVuSans-59" transform="translate(158.640625 0)"/>
      <use xlink:href="#DejaVuSans-4c" transform="translate(217.828125 0)"/>
      <use xlink:href="#DejaVuSans-56" transform="translate(245.609375 0)"/>
      <use xlink:href="#DejaVuSans-4c" transform="translate(297.703125 0)"/>
      <use xlink:href="#DejaVuSans-52" transform="translate(325.484375 0)"/>
      <use xlink:href="#DejaVuSans-51" transform="translate(386.671875 0)"/>
      <use xlink:href="#DejaVuSans-44" transform="translate(450.046875 0)"/>
      <use xlink:href="#DejaVuSans-4f" transform="translate(511.328125 0)"/>
      <use xlink:href="#DejaVuSans-3" transform="translate(539.109375 0)"/>
      <use xlink:href="#DejaVuSans-46" transform="translate(570.890625 0)"/>
      <use xlink:href="#DejaVuSans-52" transform="translate(625.875 0)"/>
      <use xlink:href="#DejaVuSans-4f" transform="translate(687.0625 0)"/>
      <use xlink:href="#DejaVuSans-4f" transform="translate(714.84375 0)"/>
      <use xlink:href="#DejaVuSans-44" transform="translate(742.625 0)"/>
      <use xlink:href="#DejaVuSans-55" transform="translate(803.90625 0)"/>
      <use xlink:href="#DejaVuSans-3" transform="translate(845.015625 0)"/>
      <use xlink:href="#DejaVuSans-13af" transform="translate(876.796875 0)"/>
      <use xlink:href="#DejaVuSans-51" transform="translate(939.78125 0)"/>
      <use xlink:href="#DejaVuSans-4c" transform="translate(1003.15625 0)"/>
      <use xlink:href="#DejaVuSans-56" transform="translate(1030.9375 0)"/>
      <use xlink:href="#DejaVuSans-4b" transform="translate(1083.03125 0)"/>
      <use xlink:href="#DejaVuSans-3" transform="translate(1146.40625 0)"/>
      <use xlink:href="#DejaVuSans-44" transform="translate(1178.1875 0)"/>
      <use xlink:href="#DejaVuSans-4f" transform="translate(1239.46875 0)"/>
      <use xlink:href="#DejaVuSans-4f" transform="translate(1267.25 0)"/>
      <use xlink:href="#DejaVuSans-52" transform="translate(1295.03125 0)"/>
      <use xlink:href="#DejaVuSans-5a" transform="translate(1356.21875 0)"/>
      <use xlink:href="#DejaVuSans-44" transform="translate(1438 0)"/>
      <use xlink:href="#DejaVuSans-51" transform="translate(1499.28125 0)"/>
      <use xlink:href="#DejaVuSans-46" transform="translate(1562.65625 0)"/>
      <use xlink:href="#DejaVuSans-48" transform="translate(1617.640625 0)"/>
      <use xlink:href="#DejaVuSans-3" transform="translate(1679.171875 0)"/>
      <use xlink:href="#DejaVuSans-b" transform="translate(1710.953125 0)"/>
      <use xlink:href="#DejaVuSans-4a" transform="translate(1749.96875 0)"/>
      <use xlink:href="#DejaVuSans-c" transform="translate(1813.453125 0)"/>
     </g>
    </g>
   </g>
   <g id="matplotlib.axis_2">
    <g id="ytick_1">
     <g id="line2d_5">
      <path d="M 67.402344 271.669122 
L 389.88 271.669122 
" clip-path="url(#p40b6695021)" style="fill: none; stroke: #b0b0b0; stroke-opacity: 0.25; stroke-width: 0.8; stroke-linecap: square"/>
     </g>
     <g id="line2d_6">
      <defs>
       <path id="me376ea7f14" d="M 0 0 
L -3.5 0 
" style="stroke: #000000; stroke-width: 0.8"/>
      </defs>
      <g>
       <use xlink:href="#me376ea7f14" x="67.402344" y="271.669122" style="stroke: #000000; stroke-width: 0.8"/>
      </g>
     </g>
     <g id="text_4">
      <!-- 9.800 -->
      <g transform="translate(31.774219 275.46795) scale(0.1 -0.1)">
       <defs>
        <path id="DejaVuSans-1c" d="M 703 97 
L 703 672 
Q 941 559 1184 500 
Q 1428 441 1663 441 
Q 2288 441 2617 861 
Q 2947 1281 2994 2138 
Q 2813 1869 2534 1725 
Q 2256 1581 1919 1581 
Q 1219 1581 811 2004 
Q 403 2428 403 3163 
Q 403 3881 828 4315 
Q 1253 4750 1959 4750 
Q 2769 4750 3195 4129 
Q 3622 3509 3622 2328 
Q 3622 1225 3098 567 
Q 2575 -91 1691 -91 
Q 1453 -91 1209 -44 
Q 966 3 703 97 
z
M 1959 2075 
Q 2384 2075 2632 2365 
Q 2881 2656 2881 3163 
Q 2881 3666 2632 3958 
Q 2384 4250 1959 4250 
Q 1534 4250 1286 3958 
Q 1038 3666 1038 3163 
Q 1038 2656 1286 2365 
Q 1534 2075 1959 2075 
z
" transform="scale(0.015625)"/>
        <path id="DejaVuSans-11" d="M 684 794 
L 1344 794 
L 1344 0 
L 684 0 
L 684 794 
z
" transform="scale(0.015625)"/>
        <path id="DejaVuSans-1b" d="M 2034 2216 
Q 1584 2216 1326 1975 
Q 1069 1734 1069 1313 
Q 1069 891 1326 650 
Q 1584 409 2034 409 
Q 2484 409 2743 651 
Q 3003 894 3003 1313 
Q 3003 1734 2745 1975 
Q 2488 2216 2034 2216 
z
M 1403 2484 
Q 997 2584 770 2862 
Q 544 3141 544 3541 
Q 544 4100 942 4425 
Q 1341 4750 2034 4750 
Q 2731 4750 3128 4425 
Q 3525 4100 3525 3541 
Q 3525 3141 3298 2862 
Q 3072 2584 2669 2484 
Q 3125 2378 3379 2068 
Q 3634 1759 3634 1313 
Q 3634 634 3220 271 
Q 2806 -91 2034 -91 
Q 1263 -91 848 271 
Q 434 634 434 1313 
Q 434 1759 690 2068 
Q 947 2378 1403 2484 
z
M 1172 3481 
Q 1172 3119 1398 2916 
Q 1625 2713 2034 2713 
Q 2441 2713 2670 2916 
Q 2900 3119 2900 3481 
Q 2900 3844 2670 4047 
Q 2441 4250 2034 4250 
Q 1625 4250 1398 4047 
Q 1172 3844 1172 3481 
z
" transform="scale(0.015625)"/>
        <path id="DejaVuSans-13" d="M 2034 4250 
Q 1547 4250 1301 3770 
Q 1056 3291 1056 2328 
Q 1056 1369 1301 889 
Q 1547 409 2034 409 
Q 2525 409 2770 889 
Q 3016 1369 3016 2328 
Q 3016 3291 2770 3770 
Q 2525 4250 2034 4250 
z
M 2034 4750 
Q 2819 4750 3233 4129 
Q 3647 3509 3647 2328 
Q 3647 1150 3233 529 
Q 2819 -91 2034 -91 
Q 1250 -91 836 529 
Q 422 1150 422 2328 
Q 422 3509 836 4129 
Q 1250 4750 2034 4750 
z
" transform="scale(0.015625)"/>
       </defs>
       <use xlink:href="#DejaVuSans-1c"/>
       <use xlink:href="#DejaVuSans-11" transform="translate(63.625 0)"/>
       <use xlink:href="#DejaVuSans-1b" transform="translate(95.40625 0)"/>
       <use xlink:href="#DejaVuSans-13" transform="translate(159.03125 0)"/>
       <use xlink:href="#DejaVuSans-13" transform="translate(222.65625 0)"/>
      </g>
     </g>
    </g>
    <g id="ytick_2">
     <g id="line2d_7">
      <path d="M 67.402344 248.379486 
L 389.88 248.379486 
" clip-path="url(#p40b6695021)" style="fill: none; stroke: #b0b0b0; stroke-opacity: 0.25; stroke-width: 0.8; stroke-linecap: square"/>
     </g>
     <g id="line2d_8">
      <g>
       <use xlink:href="#me376ea7f14" x="67.402344" y="248.379486" style="stroke: #000000; stroke-width: 0.8"/>
      </g>
     </g>
     <g id="text_5">
      <!-- 9.825 -->
      <g transform="translate(31.774219 252.178314) scale(0.1 -0.1)">
       <defs>
        <path id="DejaVuSans-15" d="M 1228 531 
L 3431 531 
L 3431 0 
L 469 0 
L 469 531 
Q 828 903 1448 1529 
Q 2069 2156 2228 2338 
Q 2531 2678 2651 2914 
Q 2772 3150 2772 3378 
Q 2772 3750 2511 3984 
Q 2250 4219 1831 4219 
Q 1534 4219 1204 4116 
Q 875 4013 500 3803 
L 500 4441 
Q 881 4594 1212 4672 
Q 1544 4750 1819 4750 
Q 2544 4750 2975 4387 
Q 3406 4025 3406 3419 
Q 3406 3131 3298 2873 
Q 3191 2616 2906 2266 
Q 2828 2175 2409 1742 
Q 1991 1309 1228 531 
z
" transform="scale(0.015625)"/>
       </defs>
       <use xlink:href="#DejaVuSans-1c"/>
       <use xlink:href="#DejaVuSans-11" transform="translate(63.625 0)"/>
       <use xlink:href="#DejaVuSans-1b" transform="translate(95.40625 0)"/>
       <use xlink:href="#DejaVuSans-15" transform="translate(159.03125 0)"/>
       <use xlink:href="#DejaVuSans-18" transform="translate(222.65625 0)"/>
      </g>
     </g>
    </g>
    <g id="ytick_3">
     <g id="line2d_9">
      <path d="M 67.402344 225.08985 
L 389.88 225.08985 
" clip-path="url(#p40b6695021)" style="fill: none; stroke: #b0b0b0; stroke-opacity: 0.25; stroke-width: 0.8; stroke-linecap: square"/>
     </g>
     <g id="line2d_10">
      <g>
       <use xlink:href="#me376ea7f14" x="67.402344" y="225.08985" style="stroke: #000000; stroke-width: 0.8"/>
      </g>
     </g>
     <g id="text_6">
      <!-- 9.850 -->
      <g transform="translate(31.774219 228.888678) scale(0.1 -0.1)">
       <use xlink:href="#DejaVuSans-1c"/>
       <use xlink:href="#DejaVuSans-11" transform="translate(63.625 0)"/>
       <use xlink:href="#DejaVuSans-1b" transform="translate(95.40625 0)"/>
       <use xlink:href="#DejaVuSans-18" transform="translate(159.03125 0)"/>
       <use xlink:href="#DejaVuSans-13" transform="translate(222.65625 0)"/>
      </g>
     </g>
    </g>
    <g id="ytick_4">
     <g id="line2d_11">
      <path d="M 67.402344 201.800214 
L 389.88 201.800214 
" clip-path="url(#p40b6695021)" style="fill: none; stroke: #b0b0b0; stroke-opacity: 0.25; stroke-width: 0.8; stroke-linecap: square"/>
     </g>
     <g id="line2d_12">
      <g>
       <use xlink:href="#me376ea7f14" x="67.402344" y="201.800214" style="stroke: #000000; stroke-width: 0.8"/>
      </g>
     </g>
     <g id="text_7">
      <!-- 9.875 -->
      <g transform="translate(31.774219 205.599042) scale(0.1 -0.1)">
       <defs>
        <path id="DejaVuSans-1a" d="M 525 4666 
L 3525 4666 
L 3525 4397 
L 1831 0 
L 1172 0 
L 2766 4134 
L 525 4134 
L 525 4666 
z
" transform="scale(0.015625)"/>
       </defs>
       <use xlink:href="#DejaVuSans-1c"/>
       <use xlink:href="#DejaVuSans-11" transform="translate(63.625 0)"/>
       <use xlink:href="#DejaVuSans-1b" transform="translate(95.40625 0)"/>
       <use xlink:href="#DejaVuSans-1a" transform="translate(159.03125 0)"/>
       <use xlink:href="#DejaVuSans-18" transform="translate(222.65625 0)"/>
      </g>
     </g>
    </g>
    <g id="ytick_5">
     <g id="line2d_13">
      <path d="M 67.402344 178.510578 
L 389.88 178.510578 
" clip-path="url(#p40b6695021)" style="fill: none; stroke: #b0b0b0; stroke-opacity: 0.25; stroke-width: 0.8; stroke-linecap: square"/>
     </g>
     <g id="line2d_14">
      <g>
       <use xlink:href="#me376ea7f14" x="67.402344" y="178.510578" style="stroke: #000000; stroke-width: 0.8"/>
      </g>
     </g>
     <g id="text_8">
      <!-- 9.900 -->
      <g transform="translate(31.774219 182.309406) scale(0.1 -0.1)">
       <use xlink:href="#DejaVuSans-1c"/>
       <use xlink:href="#DejaVuSans-11" transform="translate(63.625 0)"/>
       <use xlink:href="#DejaVuSans-1c" transform="translate(95.40625 0)"/>
       <use xlink:href="#DejaVuSans-13" transform="translate(159.03125 0)"/>
       <use xlink:href="#DejaVuSans-13" transform="translate(222.65625 0)"/>
      </g>
     </g>
    </g>
    <g id="ytick_6">
     <g id="line2d_15">
      <path d="M 67.402344 155.220941 
L 389.88 155.220941 
" clip-path="url(#p40b6695021)" style="fill: none; stroke: #b0b0b0; stroke-opacity: 0.25; stroke-width: 0.8; stroke-linecap: square"/>
     </g>
     <g id="line2d_16">
      <g>
       <use xlink:href="#me376ea7f14" x="67.402344" y="155.220941" style="stroke: #000000; stroke-width: 0.8"/>
      </g>
     </g>
     <g id="text_9">
      <!-- 9.925 -->
      <g transform="translate(31.774219 159.019769) scale(0.1 -0.1)">
       <use xlink:href="#DejaVuSans-1c"/>
       <use xlink:href="#DejaVuSans-11" transform="translate(63.625 0)"/>
       <use xlink:href="#DejaVuSans-1c" transform="translate(95.40625 0)"/>
       <use xlink:href="#DejaVuSans-15" transform="translate(159.03125 0)"/>
       <use xlink:href="#DejaVuSans-18" transform="translate(222.65625 0)"/>
      </g>
     </g>
    </g>
    <g id="ytick_7">
     <g id="line2d_17">
      <path d="M 67.402344 131.931305 
L 389.88 131.931305 
" clip-path="url(#p40b6695021)" style="fill: none; stroke: #b0b0b0; stroke-opacity: 0.25; stroke-width: 0.8; stroke-linecap: square"/>
     </g>
     <g id="line2d_18">
      <g>
       <use xlink:href="#me376ea7f14" x="67.402344" y="131.931305" style="stroke: #000000; stroke-width: 0.8"/>
      </g>
     </g>
     <g id="text_10">
      <!-- 9.950 -->
      <g transform="translate(31.774219 135.730133) scale(0.1 -0.1)">
       <use xlink:href="#DejaVuSans-1c"/>
       <use xlink:href="#DejaVuSans-11" transform="translate(63.625 0)"/>
       <use xlink:href="#DejaVuSans-1c" transform="translate(95.40625 0)"/>
       <use xlink:href="#DejaVuSans-18" transform="translate(159.03125 0)"/>
       <use xlink:href="#DejaVuSans-13" transform="translate(222.65625 0)"/>
      </g>
     </g>
    </g>
    <g id="ytick_8">
     <g id="line2d_19">
      <path d="M 67.402344 108.641669 
L 389.88 108.641669 
" clip-path="url(#p40b6695021)" style="fill: none; stroke: #b0b0b0; stroke-opacity: 0.25; stroke-width: 0.8; stroke-linecap: square"/>
     </g>
     <g id="line2d_20">
      <g>
       <use xlink:href="#me376ea7f14" x="67.402344" y="108.641669" style="stroke: #000000; stroke-width: 0.8"/>
      </g>
     </g>
     <g id="text_11">
      <!-- 9.975 -->
      <g transform="translate(31.774219 112.440497) scale(0.1 -0.1)">
       <use xlink:href="#DejaVuSans-1c"/>
       <use xlink:href="#DejaVuSans-11" transform="translate(63.625 0)"/>
       <use xlink:href="#DejaVuSans-1c" transform="translate(95.40625 0)"/>
       <use xlink:href="#DejaVuSans-1a" transform="translate(159.03125 0)"/>
       <use xlink:href="#DejaVuSans-18" transform="translate(222.65625 0)"/>
      </g>
     </g>
    </g>
    <g id="ytick_9">
     <g id="line2d_21">
      <path d="M 67.402344 85.352033 
L 389.88 85.352033 
" clip-path="url(#p40b6695021)" style="fill: none; stroke: #b0b0b0; stroke-opacity: 0.25; stroke-width: 0.8; stroke-linecap: square"/>
     </g>
     <g id="line2d_22">
      <g>
       <use xlink:href="#me376ea7f14" x="67.402344" y="85.352033" style="stroke: #000000; stroke-width: 0.8"/>
      </g>
     </g>
     <g id="text_12">
      <!-- 10.000 -->
      <g transform="translate(25.411719 89.150861) scale(0.1 -0.1)">
       <defs>
        <path id="DejaVuSans-14" d="M 794 531 
L 1825 531 
L 1825 4091 
L 703 3866 
L 703 4441 
L 1819 4666 
L 2450 4666 
L 2450 531 
L 3481 531 
L 3481 0 
L 794 0 
L 794 531 
z
" transform="scale(0.015625)"/>
       </defs>
       <use xlink:href="#DejaVuSans-14"/>
       <use xlink:href="#DejaVuSans-13" transform="translate(63.625 0)"/>
       <use xlink:href="#DejaVuSans-11" transform="translate(127.25 0)"/>
       <use xlink:href="#DejaVuSans-13" transform="translate(159.03125 0)"/>
       <use xlink:href="#DejaVuSans-13" transform="translate(222.65625 0)"/>
       <use xlink:href="#DejaVuSans-13" transform="translate(286.28125 0)"/>
      </g>
     </g>
    </g>
    <g id="text_13">
     <!-- Deployment speed (m/s) -->
     <g transform="translate(19.009375 238.053922) rotate(-90) scale(0.1 -0.1)">
      <defs>
       <path id="DejaVuSans-27" d="M 1259 4147 
L 1259 519 
L 2022 519 
Q 2988 519 3436 956 
Q 3884 1394 3884 2338 
Q 3884 3275 3436 3711 
Q 2988 4147 2022 4147 
L 1259 4147 
z
M 628 4666 
L 1925 4666 
Q 3281 4666 3915 4102 
Q 4550 3538 4550 2338 
Q 4550 1131 3912 565 
Q 3275 0 1925 0 
L 628 0 
L 628 4666 
z
" transform="scale(0.015625)"/>
       <path id="DejaVuSans-53" d="M 1159 525 
L 1159 -1331 
L 581 -1331 
L 581 3500 
L 1159 3500 
L 1159 2969 
Q 1341 3281 1617 3432 
Q 1894 3584 2278 3584 
Q 2916 3584 3314 3078 
Q 3713 2572 3713 1747 
Q 3713 922 3314 415 
Q 2916 -91 2278 -91 
Q 1894 -91 1617 61 
Q 1341 213 1159 525 
z
M 3116 1747 
Q 3116 2381 2855 2742 
Q 2594 3103 2138 3103 
Q 1681 3103 1420 2742 
Q 1159 2381 1159 1747 
Q 1159 1113 1420 752 
Q 1681 391 2138 391 
Q 2594 391 2855 752 
Q 3116 1113 3116 1747 
z
" transform="scale(0.015625)"/>
       <path id="DejaVuSans-5c" d="M 2059 -325 
Q 1816 -950 1584 -1140 
Q 1353 -1331 966 -1331 
L 506 -1331 
L 506 -850 
L 844 -850 
Q 1081 -850 1212 -737 
Q 1344 -625 1503 -206 
L 1606 56 
L 191 3500 
L 800 3500 
L 1894 763 
L 2988 3500 
L 3597 3500 
L 2059 -325 
z
" transform="scale(0.015625)"/>
       <path id="DejaVuSans-50" d="M 3328 2828 
Q 3544 3216 3844 3400 
Q 4144 3584 4550 3584 
Q 5097 3584 5394 3201 
Q 5691 2819 5691 2113 
L 5691 0 
L 5113 0 
L 5113 2094 
Q 5113 2597 4934 2840 
Q 4756 3084 4391 3084 
Q 3944 3084 3684 2787 
Q 3425 2491 3425 1978 
L 3425 0 
L 2847 0 
L 2847 2094 
Q 2847 2600 2669 2842 
Q 2491 3084 2119 3084 
Q 1678 3084 1418 2786 
Q 1159 2488 1159 1978 
L 1159 0 
L 581 0 
L 581 3500 
L 1159 3500 
L 1159 2956 
Q 1356 3278 1631 3431 
Q 1906 3584 2284 3584 
Q 2666 3584 2933 3390 
Q 3200 3197 3328 2828 
z
" transform="scale(0.015625)"/>
       <path id="DejaVuSans-57" d="M 1172 4494 
L 1172 3500 
L 2356 3500 
L 2356 3053 
L 1172 3053 
L 1172 1153 
Q 1172 725 1289 603 
Q 1406 481 1766 481 
L 2356 481 
L 2356 0 
L 1766 0 
Q 1100 0 847 248 
Q 594 497 594 1153 
L 594 3053 
L 172 3053 
L 172 3500 
L 594 3500 
L 594 4494 
L 1172 4494 
z
" transform="scale(0.015625)"/>
       <path id="DejaVuSans-47" d="M 2906 2969 
L 2906 4863 
L 3481 4863 
L 3481 0 
L 2906 0 
L 2906 525 
Q 2725 213 2448 61 
Q 2172 -91 1784 -91 
Q 1150 -91 751 415 
Q 353 922 353 1747 
Q 353 2572 751 3078 
Q 1150 3584 1784 3584 
Q 2172 3584 2448 3432 
Q 2725 3281 2906 2969 
z
M 947 1747 
Q 947 1113 1208 752 
Q 1469 391 1925 391 
Q 2381 391 2643 752 
Q 2906 1113 2906 1747 
Q 2906 2381 2643 2742 
Q 2381 3103 1925 3103 
Q 1469 3103 1208 2742 
Q 947 2381 947 1747 
z
" transform="scale(0.015625)"/>
       <path id="DejaVuSans-12" d="M 1625 4666 
L 2156 4666 
L 531 -594 
L 0 -594 
L 1625 4666 
z
" transform="scale(0.015625)"/>
      </defs>
      <use xlink:href="#DejaVuSans-27"/>
      <use xlink:href="#DejaVuSans-48" transform="translate(77 0)"/>
      <use xlink:href="#DejaVuSans-53" transform="translate(138.53125 0)"/>
      <use xlink:href="#DejaVuSans-4f" transform="translate(202.015625 0)"/>
      <use xlink:href="#DejaVuSans-52" transform="translate(229.796875 0)"/>
      <use xlink:href="#DejaVuSans-5c" transform="translate(290.984375 0)"/>
      <use xlink:href="#DejaVuSans-50" transform="translate(350.171875 0)"/>
      <use xlink:href="#DejaVuSans-48" transform="translate(447.578125 0)"/>
      <use xlink:href="#DejaVuSans-51" transform="translate(509.109375 0)"/>
      <use xlink:href="#DejaVuSans-57" transform="translate(572.484375 0)"/>
      <use xlink:href="#DejaVuSans-3" transform="translate(611.6875 0)"/>
      <use xlink:href="#DejaVuSans-56" transform="translate(643.46875 0)"/>
      <use xlink:href="#DejaVuSans-53" transform="translate(695.5625 0)"/>
      <use xlink:href="#DejaVuSans-48" transform="translate(759.046875 0)"/>
      <use xlink:href="#DejaVuSans-48" transform="translate(820.578125 0)"/>
      <use xlink:href="#DejaVuSans-47" transform="translate(882.109375 0)"/>
      <use xlink:href="#DejaVuSans-3" transform="translate(945.59375 0)"/>
      <use xlink:href="#DejaVuSans-b" transform="translate(977.375 0)"/>
      <use xlink:href="#DejaVuSans-50" transform="translate(1016.390625 0)"/>
      <use xlink:href="#DejaVuSans-12" transform="translate(1113.796875 0)"/>
      <use xlink:href="#DejaVuSans-56" transform="translate(1147.484375 0)"/>
      <use xlink:href="#DejaVuSans-c" transform="translate(1199.578125 0)"/>
     </g>
    </g>
   </g>
   <g id="line2d_23">
    <path d="M 82.060419 214.408266 
L 375.221925 123.120762 
" clip-path="url(#p40b6695021)" style="fill: none; stroke: #111111; stroke-width: 1.5; stroke-linecap: square"/>
    <defs>
     <path id="m90ce492c76" d="M 0 3 
C 0.795609 3 1.55874 2.683901 2.12132 2.12132 
C 2.683901 1.55874 3 0.795609 3 0 
C 3 -0.795609 2.683901 -1.55874 2.12132 -2.12132 
C 1.55874 -2.683901 0.795609 -3 0 -3 
C -0.795609 -3 -1.55874 -2.683901 -2.12132 -2.12132 
C -2.683901 -1.55874 -3 -0.795609 -3 0 
C -3 0.795609 -2.683901 1.55874 -2.12132 2.12132 
C -1.55874 2.683901 -0.795609 3 0 3 
z
" style="stroke: #111111"/>
    </defs>
    <g clip-path="url(#p40b6695021)">
     <use xlink:href="#m90ce492c76" x="82.060419" y="214.408266" style="fill: #111111; stroke: #111111"/>
     <use xlink:href="#m90ce492c76" x="375.221925" y="123.120762" style="fill: #111111; stroke: #111111"/>
    </g>
   </g>
   <g id="line2d_24">
    <path d="M 82.060419 266.896436 
L 375.221925 170.129526 
" clip-path="url(#p40b6695021)" style="fill: none; stroke: #b78300; stroke-width: 1.5; stroke-linecap: square"/>
    <defs>
     <path id="m5c2d05dfe3" d="M 0 3 
C 0.795609 3 1.55874 2.683901 2.12132 2.12132 
C 2.683901 1.55874 3 0.795609 3 0 
C 3 -0.795609 2.683901 -1.55874 2.12132 -2.12132 
C 1.55874 -2.683901 0.795609 -3 0 -3 
C -0.795609 -3 -1.55874 -2.683901 -2.12132 -2.12132 
C -2.683901 -1.55874 -3 -0.795609 -3 0 
C -3 0.795609 -2.683901 1.55874 -2.12132 2.12132 
C -1.55874 2.683901 -0.795609 3 0 3 
z
" style="stroke: #b78300"/>
    </defs>
    <g clip-path="url(#p40b6695021)">
     <use xlink:href="#m5c2d05dfe3" x="82.060419" y="266.896436" style="fill: #b78300; stroke: #b78300"/>
     <use xlink:href="#m5c2d05dfe3" x="375.221925" y="170.129526" style="fill: #b78300; stroke: #b78300"/>
    </g>
   </g>
   <g id="line2d_25">
    <path d="M 67.402344 85.352033 
L 389.88 85.352033 
" clip-path="url(#p40b6695021)" style="fill: none; stroke-dasharray: 5.55,2.4; stroke-dashoffset: 0; stroke: #888888; stroke-width: 1.5"/>
   </g>
   <g id="patch_3">
    <path d="M 67.402344 275.973656 
L 67.402344 76.274812 
" style="fill: none; stroke: #000000; stroke-width: 0.8; stroke-linejoin: miter; stroke-linecap: square"/>
   </g>
   <g id="patch_4">
    <path d="M 389.88 275.973656 
L 389.88 76.274812 
" style="fill: none; stroke: #000000; stroke-width: 0.8; stroke-linejoin: miter; stroke-linecap: square"/>
   </g>
   <g id="patch_5">
    <path d="M 67.402344 275.973656 
L 389.88 275.973656 
" style="fill: none; stroke: #000000; stroke-width: 0.8; stroke-linejoin: miter; stroke-linecap: square"/>
   </g>
   <g id="patch_6">
    <path d="M 67.402344 76.274813 
L 389.88 76.274813 
" style="fill: none; stroke: #000000; stroke-width: 0.8; stroke-linejoin: miter; stroke-linecap: square"/>
   </g>
   <g id="text_14">
    <!-- E12-6: fastest deployment -->
    <g transform="translate(149.070859 70.274813) scale(0.12 -0.12)">
     <defs>
      <path id="DejaVuSans-28" d="M 628 4666 
L 3578 4666 
L 3578 4134 
L 1259 4134 
L 1259 2753 
L 3481 2753 
L 3481 2222 
L 1259 2222 
L 1259 531 
L 3634 531 
L 3634 0 
L 628 0 
L 628 4666 
z
" transform="scale(0.015625)"/>
      <path id="DejaVuSans-10" d="M 313 2009 
L 1997 2009 
L 1997 1497 
L 313 1497 
L 313 2009 
z
" transform="scale(0.015625)"/>
      <path id="DejaVuSans-19" d="M 2113 2584 
Q 1688 2584 1439 2293 
Q 1191 2003 1191 1497 
Q 1191 994 1439 701 
Q 1688 409 2113 409 
Q 2538 409 2786 701 
Q 3034 994 3034 1497 
Q 3034 2003 2786 2293 
Q 2538 2584 2113 2584 
z
M 3366 4563 
L 3366 3988 
Q 3128 4100 2886 4159 
Q 2644 4219 2406 4219 
Q 1781 4219 1451 3797 
Q 1122 3375 1075 2522 
Q 1259 2794 1537 2939 
Q 1816 3084 2150 3084 
Q 2853 3084 3261 2657 
Q 3669 2231 3669 1497 
Q 3669 778 3244 343 
Q 2819 -91 2113 -91 
Q 1303 -91 875 529 
Q 447 1150 447 2328 
Q 447 3434 972 4092 
Q 1497 4750 2381 4750 
Q 2619 4750 2861 4703 
Q 3103 4656 3366 4563 
z
" transform="scale(0.015625)"/>
      <path id="DejaVuSans-1d" d="M 750 794 
L 1409 794 
L 1409 0 
L 750 0 
L 750 794 
z
M 750 3309 
L 1409 3309 
L 1409 2516 
L 750 2516 
L 750 3309 
z
" transform="scale(0.015625)"/>
      <path id="DejaVuSans-49" d="M 2375 4863 
L 2375 4384 
L 1825 4384 
Q 1516 4384 1395 4259 
Q 1275 4134 1275 3809 
L 1275 3500 
L 2222 3500 
L 2222 3053 
L 1275 3053 
L 1275 0 
L 697 0 
L 697 3053 
L 147 3053 
L 147 3500 
L 697 3500 
L 697 3744 
Q 697 4328 969 4595 
Q 1241 4863 1831 4863 
L 2375 4863 
z
" transform="scale(0.015625)"/>
     </defs>
     <use xlink:href="#DejaVuSans-28"/>
     <use xlink:href="#DejaVuSans-14" transform="translate(63.1875 0)"/>
     <use xlink:href="#DejaVuSans-15" transform="translate(126.8125 0)"/>
     <use xlink:href="#DejaVuSans-10" transform="translate(190.4375 0)"/>
     <use xlink:href="#DejaVuSans-19" transform="translate(226.515625 0)"/>
     <use xlink:href="#DejaVuSans-1d" transform="translate(290.140625 0)"/>
     <use xlink:href="#DejaVuSans-3" transform="translate(323.828125 0)"/>
     <use xlink:href="#DejaVuSans-49" transform="translate(355.609375 0)"/>
     <use xlink:href="#DejaVuSans-44" transform="translate(390.8125 0)"/>
     <use xlink:href="#DejaVuSans-56" transform="translate(452.09375 0)"/>
     <use xlink:href="#DejaVuSans-57" transform="translate(504.1875 0)"/>
     <use xlink:href="#DejaVuSans-48" transform="translate(543.390625 0)"/>
     <use xlink:href="#DejaVuSans-56" transform="translate(604.921875 0)"/>
     <use xlink:href="#DejaVuSans-57" transform="translate(657.015625 0)"/>
     <use xlink:href="#DejaVuSans-3" transform="translate(696.21875 0)"/>
     <use xlink:href="#DejaVuSans-47" transform="translate(728 0)"/>
     <use xlink:href="#DejaVuSans-48" transform="translate(791.484375 0)"/>
     <use xlink:href="#DejaVuSans-53" transform="translate(853.015625 0)"/>
     <use xlink:href="#DejaVuSans-4f" transform="translate(916.5 0)"/>
     <use xlink:href="#DejaVuSans-52" transform="translate(944.28125 0)"/>
     <use xlink:href="#DejaVuSans-5c" transform="translate(1005.46875 0)"/>
     <use xlink:href="#DejaVuSans-50" transform="translate(1064.65625 0)"/>
     <use xlink:href="#DejaVuSans-48" transform="translate(1162.0625 0)"/>
     <use xlink:href="#DejaVuSans-51" transform="translate(1223.59375 0)"/>
     <use xlink:href="#DejaVuSans-57" transform="translate(1286.96875 0)"/>
    </g>
   </g>
   <g id="legend_1">
    <g id="patch_7">
     <path d="M 263.72125 271.973656 
L 384.28 271.973656 
Q 385.88 271.973656 385.88 270.373656 
L 385.88 235.171781 
Q 385.88 233.571781 384.28 233.571781 
L 263.72125 233.571781 
Q 262.12125 233.571781 262.12125 235.171781 
L 262.12125 270.373656 
Q 262.12125 271.973656 263.72125 271.973656 
z
" style="fill: #ffffff; opacity: 0.8; stroke: #cccccc; stroke-linejoin: miter"/>
    </g>
    <g id="line2d_26">
     <path d="M 265.32125 240.050531 
L 273.32125 240.050531 
L 281.32125 240.050531 
" style="fill: none; stroke: #111111; stroke-width: 1.5; stroke-linecap: square"/>
     <g>
      <use xlink:href="#m90ce492c76" x="273.32125" y="240.050531" style="fill: #111111; stroke: #111111"/>
     </g>
    </g>
    <g id="text_15">
     <!-- current 50 mm cone -->
     <g transform="translate(287.72125 242.850531) scale(0.08 -0.08)">
      <defs>
       <path id="DejaVuSans-58" d="M 544 1381 
L 544 3500 
L 1119 3500 
L 1119 1403 
Q 1119 906 1312 657 
Q 1506 409 1894 409 
Q 2359 409 2629 706 
Q 2900 1003 2900 1516 
L 2900 3500 
L 3475 3500 
L 3475 0 
L 2900 0 
L 2900 538 
Q 2691 219 2414 64 
Q 2138 -91 1772 -91 
Q 1169 -91 856 284 
Q 544 659 544 1381 
z
M 1991 3584 
L 1991 3584 
z
" transform="scale(0.015625)"/>
      </defs>
      <use xlink:href="#DejaVuSans-46"/>
      <use xlink:href="#DejaVuSans-58" transform="translate(54.984375 0)"/>
      <use xlink:href="#DejaVuSans-55" transform="translate(118.359375 0)"/>
      <use xlink:href="#DejaVuSans-55" transform="translate(157.71875 0)"/>
      <use xlink:href="#DejaVuSans-48" transform="translate(196.625 0)"/>
      <use xlink:href="#DejaVuSans-51" transform="translate(258.15625 0)"/>
      <use xlink:href="#DejaVuSans-57" transform="translate(321.53125 0)"/>
      <use xlink:href="#DejaVuSans-3" transform="translate(360.734375 0)"/>
      <use xlink:href="#DejaVuSans-18" transform="translate(392.515625 0)"/>
      <use xlink:href="#DejaVuSans-13" transform="translate(456.140625 0)"/>
      <use xlink:href="#DejaVuSans-3" transform="translate(519.765625 0)"/>
      <use xlink:href="#DejaVuSans-50" transform="translate(551.546875 0)"/>
      <use xlink:href="#DejaVuSans-50" transform="translate(648.953125 0)"/>
      <use xlink:href="#DejaVuSans-3" transform="translate(746.359375 0)"/>
      <use xlink:href="#DejaVuSans-46" transform="translate(778.140625 0)"/>
      <use xlink:href="#DejaVuSans-52" transform="translate(833.125 0)"/>
      <use xlink:href="#DejaVuSans-51" transform="translate(894.3125 0)"/>
      <use xlink:href="#DejaVuSans-48" transform="translate(957.6875 0)"/>
     </g>
    </g>
    <g id="line2d_27">
     <path d="M 265.32125 252.051156 
L 273.32125 252.051156 
L 281.32125 252.051156 
" style="fill: none; stroke: #b78300; stroke-width: 1.5; stroke-linecap: square"/>
     <g>
      <use xlink:href="#m5c2d05dfe3" x="273.32125" y="252.051156" style="fill: #b78300; stroke: #b78300"/>
     </g>
    </g>
    <g id="text_16">
     <!-- 40 mm ogive candidate -->
     <g transform="translate(287.72125 254.851156) scale(0.08 -0.08)">
      <defs>
       <path id="DejaVuSans-17" d="M 2419 4116 
L 825 1625 
L 2419 1625 
L 2419 4116 
z
M 2253 4666 
L 3047 4666 
L 3047 1625 
L 3713 1625 
L 3713 1100 
L 3047 1100 
L 3047 0 
L 2419 0 
L 2419 1100 
L 313 1100 
L 313 1709 
L 2253 4666 
z
" transform="scale(0.015625)"/>
      </defs>
      <use xlink:href="#DejaVuSans-17"/>
      <use xlink:href="#DejaVuSans-13" transform="translate(63.625 0)"/>
      <use xlink:href="#DejaVuSans-3" transform="translate(127.25 0)"/>
      <use xlink:href="#DejaVuSans-50" transform="translate(159.03125 0)"/>
      <use xlink:href="#DejaVuSans-50" transform="translate(256.4375 0)"/>
      <use xlink:href="#DejaVuSans-3" transform="translate(353.84375 0)"/>
      <use xlink:href="#DejaVuSans-52" transform="translate(385.625 0)"/>
      <use xlink:href="#DejaVuSans-4a" transform="translate(446.8125 0)"/>
      <use xlink:href="#DejaVuSans-4c" transform="translate(510.296875 0)"/>
      <use xlink:href="#DejaVuSans-59" transform="translate(538.078125 0)"/>
      <use xlink:href="#DejaVuSans-48" transform="translate(597.265625 0)"/>
      <use xlink:href="#DejaVuSans-3" transform="translate(658.796875 0)"/>
      <use xlink:href="#DejaVuSans-46" transform="translate(690.578125 0)"/>
      <use xlink:href="#DejaVuSans-44" transform="translate(745.5625 0)"/>
      <use xlink:href="#DejaVuSans-51" transform="translate(806.84375 0)"/>
      <use xlink:href="#DejaVuSans-47" transform="translate(870.21875 0)"/>
      <use xlink:href="#DejaVuSans-4c" transform="translate(933.703125 0)"/>
      <use xlink:href="#DejaVuSans-47" transform="translate(961.484375 0)"/>
      <use xlink:href="#DejaVuSans-44" transform="translate(1024.96875 0)"/>
      <use xlink:href="#DejaVuSans-57" transform="translate(1086.25 0)"/>
      <use xlink:href="#DejaVuSans-48" transform="translate(1125.453125 0)"/>
     </g>
    </g>
    <g id="line2d_28">
     <path d="M 265.32125 264.051781 
L 273.32125 264.051781 
L 281.32125 264.051781 
" style="fill: none; stroke-dasharray: 5.55,2.4; stroke-dashoffset: 0; stroke: #888888; stroke-width: 1.5"/>
    </g>
    <g id="text_17">
     <!-- 10 m/s screen limit -->
     <g transform="translate(287.72125 266.851781) scale(0.08 -0.08)">
      <use xlink:href="#DejaVuSans-14"/>
      <use xlink:href="#DejaVuSans-13" transform="translate(63.625 0)"/>
      <use xlink:href="#DejaVuSans-3" transform="translate(127.25 0)"/>
      <use xlink:href="#DejaVuSans-50" transform="translate(159.03125 0)"/>
      <use xlink:href="#DejaVuSans-12" transform="translate(256.4375 0)"/>
      <use xlink:href="#DejaVuSans-56" transform="translate(290.125 0)"/>
      <use xlink:href="#DejaVuSans-3" transform="translate(342.21875 0)"/>
      <use xlink:href="#DejaVuSans-56" transform="translate(374 0)"/>
      <use xlink:href="#DejaVuSans-46" transform="translate(426.09375 0)"/>
      <use xlink:href="#DejaVuSans-55" transform="translate(481.078125 0)"/>
      <use xlink:href="#DejaVuSans-48" transform="translate(519.984375 0)"/>
      <use xlink:href="#DejaVuSans-48" transform="translate(581.515625 0)"/>
      <use xlink:href="#DejaVuSans-51" transform="translate(643.046875 0)"/>
      <use xlink:href="#DejaVuSans-3" transform="translate(706.421875 0)"/>
      <use xlink:href="#DejaVuSans-4f" transform="translate(738.203125 0)"/>
      <use xlink:href="#DejaVuSans-4c" transform="translate(765.984375 0)"/>
      <use xlink:href="#DejaVuSans-50" transform="translate(793.765625 0)"/>
      <use xlink:href="#DejaVuSans-4c" transform="translate(891.171875 0)"/>
      <use xlink:href="#DejaVuSans-57" transform="translate(918.953125 0)"/>
     </g>
    </g>
   </g>
  </g>
  <g id="axes_2">
   <g id="patch_8">
    <path d="M 444.322344 275.973656 
L 766.8 275.973656 
L 766.8 76.274813 
L 444.322344 76.274813 
z
" style="fill: #ffffff"/>
   </g>
   <g id="matplotlib.axis_3">
    <g id="xtick_3">
     <g id="line2d_29">
      <path d="M 458.980419 275.973656 
L 458.980419 76.274813 
" clip-path="url(#p7c0f33330c)" style="fill: none; stroke: #b0b0b0; stroke-opacity: 0.25; stroke-width: 0.8; stroke-linecap: square"/>
     </g>
     <g id="line2d_30">
      <g>
       <use xlink:href="#m3ca89f1fc6" x="458.980419" y="275.973656" style="stroke: #000000; stroke-width: 0.8"/>
      </g>
     </g>
     <g id="text_18">
      <!-- 3 -->
      <g transform="translate(455.799169 290.571313) scale(0.1 -0.1)">
       <use xlink:href="#DejaVuSans-16"/>
      </g>
     </g>
    </g>
    <g id="xtick_4">
     <g id="line2d_31">
      <path d="M 752.141925 275.973656 
L 752.141925 76.274813 
" clip-path="url(#p7c0f33330c)" style="fill: none; stroke: #b0b0b0; stroke-opacity: 0.25; stroke-width: 0.8; stroke-linecap: square"/>
     </g>
     <g id="line2d_32">
      <g>
       <use xlink:href="#m3ca89f1fc6" x="752.141925" y="275.973656" style="stroke: #000000; stroke-width: 0.8"/>
      </g>
     </g>
     <g id="text_19">
      <!-- 5 -->
      <g transform="translate(748.960675 290.571313) scale(0.1 -0.1)">
       <use xlink:href="#DejaVuSans-18"/>
      </g>
     </g>
    </g>
    <g id="text_20">
     <!-- Provisional collar finish allowance (g) -->
     <g transform="translate(512.937734 304.572094) scale(0.1 -0.1)">
      <use xlink:href="#DejaVuSans-33"/>
      <use xlink:href="#DejaVuSans-55" transform="translate(58.546875 0)"/>
      <use xlink:href="#DejaVuSans-52" transform="translate(97.453125 0)"/>
      <use xlink:href="#DejaVuSans-59" transform="translate(158.640625 0)"/>
      <use xlink:href="#DejaVuSans-4c" transform="translate(217.828125 0)"/>
      <use xlink:href="#DejaVuSans-56" transform="translate(245.609375 0)"/>
      <use xlink:href="#DejaVuSans-4c" transform="translate(297.703125 0)"/>
      <use xlink:href="#DejaVuSans-52" transform="translate(325.484375 0)"/>
      <use xlink:href="#DejaVuSans-51" transform="translate(386.671875 0)"/>
      <use xlink:href="#DejaVuSans-44" transform="translate(450.046875 0)"/>
      <use xlink:href="#DejaVuSans-4f" transform="translate(511.328125 0)"/>
      <use xlink:href="#DejaVuSans-3" transform="translate(539.109375 0)"/>
      <use xlink:href="#DejaVuSans-46" transform="translate(570.890625 0)"/>
      <use xlink:href="#DejaVuSans-52" transform="translate(625.875 0)"/>
      <use xlink:href="#DejaVuSans-4f" transform="translate(687.0625 0)"/>
      <use xlink:href="#DejaVuSans-4f" transform="translate(714.84375 0)"/>
      <use xlink:href="#DejaVuSans-44" transform="translate(742.625 0)"/>
      <use xlink:href="#DejaVuSans-55" transform="translate(803.90625 0)"/>
      <use xlink:href="#DejaVuSans-3" transform="translate(845.015625 0)"/>
      <use xlink:href="#DejaVuSans-13af" transform="translate(876.796875 0)"/>
      <use xlink:href="#DejaVuSans-51" transform="translate(939.78125 0)"/>
      <use xlink:href="#DejaVuSans-4c" transform="translate(1003.15625 0)"/>
      <use xlink:href="#DejaVuSans-56" transform="translate(1030.9375 0)"/>
      <use xlink:href="#DejaVuSans-4b" transform="translate(1083.03125 0)"/>
      <use xlink:href="#DejaVuSans-3" transform="translate(1146.40625 0)"/>
      <use xlink:href="#DejaVuSans-44" transform="translate(1178.1875 0)"/>
      <use xlink:href="#DejaVuSans-4f" transform="translate(1239.46875 0)"/>
      <use xlink:href="#DejaVuSans-4f" transform="translate(1267.25 0)"/>
      <use xlink:href="#DejaVuSans-52" transform="translate(1295.03125 0)"/>
      <use xlink:href="#DejaVuSans-5a" transform="translate(1356.21875 0)"/>
      <use xlink:href="#DejaVuSans-44" transform="translate(1438 0)"/>
      <use xlink:href="#DejaVuSans-51" transform="translate(1499.28125 0)"/>
      <use xlink:href="#DejaVuSans-46" transform="translate(1562.65625 0)"/>
      <use xlink:href="#DejaVuSans-48" transform="translate(1617.640625 0)"/>
      <use xlink:href="#DejaVuSans-3" transform="translate(1679.171875 0)"/>
      <use xlink:href="#DejaVuSans-b" transform="translate(1710.953125 0)"/>
      <use xlink:href="#DejaVuSans-4a" transform="translate(1749.96875 0)"/>
      <use xlink:href="#DejaVuSans-c" transform="translate(1813.453125 0)"/>
     </g>
    </g>
   </g>
   <g id="matplotlib.axis_4">
    <g id="ytick_10">
     <g id="line2d_33">
      <path d="M 444.322344 266.896436 
L 766.8 266.896436 
" clip-path="url(#p7c0f33330c)" style="fill: none; stroke: #b0b0b0; stroke-opacity: 0.25; stroke-width: 0.8; stroke-linecap: square"/>
     </g>
     <g id="line2d_34">
      <g>
       <use xlink:href="#me376ea7f14" x="444.322344" y="266.896436" style="stroke: #000000; stroke-width: 0.8"/>
      </g>
     </g>
     <g id="text_21">
      <!-- 12.0 -->
      <g transform="translate(415.056719 270.695264) scale(0.1 -0.1)">
       <use xlink:href="#DejaVuSans-14"/>
       <use xlink:href="#DejaVuSans-15" transform="translate(63.625 0)"/>
       <use xlink:href="#DejaVuSans-11" transform="translate(127.25 0)"/>
       <use xlink:href="#DejaVuSans-13" transform="translate(159.03125 0)"/>
      </g>
     </g>
    </g>
    <g id="ytick_11">
     <g id="line2d_35">
      <path d="M 444.322344 224.064572 
L 766.8 224.064572 
" clip-path="url(#p7c0f33330c)" style="fill: none; stroke: #b0b0b0; stroke-opacity: 0.25; stroke-width: 0.8; stroke-linecap: square"/>
     </g>
     <g id="line2d_36">
      <g>
       <use xlink:href="#me376ea7f14" x="444.322344" y="224.064572" style="stroke: #000000; stroke-width: 0.8"/>
      </g>
     </g>
     <g id="text_22">
      <!-- 12.1 -->
      <g transform="translate(415.056719 227.8634) scale(0.1 -0.1)">
       <use xlink:href="#DejaVuSans-14"/>
       <use xlink:href="#DejaVuSans-15" transform="translate(63.625 0)"/>
       <use xlink:href="#DejaVuSans-11" transform="translate(127.25 0)"/>
       <use xlink:href="#DejaVuSans-14" transform="translate(159.03125 0)"/>
      </g>
     </g>
    </g>
    <g id="ytick_12">
     <g id="line2d_37">
      <path d="M 444.322344 181.232708 
L 766.8 181.232708 
" clip-path="url(#p7c0f33330c)" style="fill: none; stroke: #b0b0b0; stroke-opacity: 0.25; stroke-width: 0.8; stroke-linecap: square"/>
     </g>
     <g id="line2d_38">
      <g>
       <use xlink:href="#me376ea7f14" x="444.322344" y="181.232708" style="stroke: #000000; stroke-width: 0.8"/>
      </g>
     </g>
     <g id="text_23">
      <!-- 12.2 -->
      <g transform="translate(415.056719 185.031536) scale(0.1 -0.1)">
       <use xlink:href="#DejaVuSans-14"/>
       <use xlink:href="#DejaVuSans-15" transform="translate(63.625 0)"/>
       <use xlink:href="#DejaVuSans-11" transform="translate(127.25 0)"/>
       <use xlink:href="#DejaVuSans-15" transform="translate(159.03125 0)"/>
      </g>
     </g>
    </g>
    <g id="ytick_13">
     <g id="line2d_39">
      <path d="M 444.322344 138.400844 
L 766.8 138.400844 
" clip-path="url(#p7c0f33330c)" style="fill: none; stroke: #b0b0b0; stroke-opacity: 0.25; stroke-width: 0.8; stroke-linecap: square"/>
     </g>
     <g id="line2d_40">
      <g>
       <use xlink:href="#me376ea7f14" x="444.322344" y="138.400844" style="stroke: #000000; stroke-width: 0.8"/>
      </g>
     </g>
     <g id="text_24">
      <!-- 12.3 -->
      <g transform="translate(415.056719 142.199672) scale(0.1 -0.1)">
       <use xlink:href="#DejaVuSans-14"/>
       <use xlink:href="#DejaVuSans-15" transform="translate(63.625 0)"/>
       <use xlink:href="#DejaVuSans-11" transform="translate(127.25 0)"/>
       <use xlink:href="#DejaVuSans-16" transform="translate(159.03125 0)"/>
      </g>
     </g>
    </g>
    <g id="ytick_14">
     <g id="line2d_41">
      <path d="M 444.322344 95.568979 
L 766.8 95.568979 
" clip-path="url(#p7c0f33330c)" style="fill: none; stroke: #b0b0b0; stroke-opacity: 0.25; stroke-width: 0.8; stroke-linecap: square"/>
     </g>
     <g id="line2d_42">
      <g>
       <use xlink:href="#me376ea7f14" x="444.322344" y="95.568979" style="stroke: #000000; stroke-width: 0.8"/>
      </g>
     </g>
     <g id="text_25">
      <!-- 12.4 -->
      <g transform="translate(415.056719 99.367807) scale(0.1 -0.1)">
       <use xlink:href="#DejaVuSans-14"/>
       <use xlink:href="#DejaVuSans-15" transform="translate(63.625 0)"/>
       <use xlink:href="#DejaVuSans-11" transform="translate(127.25 0)"/>
       <use xlink:href="#DejaVuSans-17" transform="translate(159.03125 0)"/>
      </g>
     </g>
    </g>
    <g id="text_26">
     <!-- Guide departure speed (m/s) -->
     <g transform="translate(408.654375 248.436734) rotate(-90) scale(0.1 -0.1)">
      <defs>
       <path id="DejaVuSans-2a" d="M 3809 666 
L 3809 1919 
L 2778 1919 
L 2778 2438 
L 4434 2438 
L 4434 434 
Q 4069 175 3628 42 
Q 3188 -91 2688 -91 
Q 1594 -91 976 548 
Q 359 1188 359 2328 
Q 359 3472 976 4111 
Q 1594 4750 2688 4750 
Q 3144 4750 3555 4637 
Q 3966 4525 4313 4306 
L 4313 3634 
Q 3963 3931 3569 4081 
Q 3175 4231 2741 4231 
Q 1884 4231 1454 3753 
Q 1025 3275 1025 2328 
Q 1025 1384 1454 906 
Q 1884 428 2741 428 
Q 3075 428 3337 486 
Q 3600 544 3809 666 
z
" transform="scale(0.015625)"/>
      </defs>
      <use xlink:href="#DejaVuSans-2a"/>
      <use xlink:href="#DejaVuSans-58" transform="translate(77.484375 0)"/>
      <use xlink:href="#DejaVuSans-4c" transform="translate(140.859375 0)"/>
      <use xlink:href="#DejaVuSans-47" transform="translate(168.640625 0)"/>
      <use xlink:href="#DejaVuSans-48" transform="translate(232.125 0)"/>
      <use xlink:href="#DejaVuSans-3" transform="translate(293.65625 0)"/>
      <use xlink:href="#DejaVuSans-47" transform="translate(325.4375 0)"/>
      <use xlink:href="#DejaVuSans-48" transform="translate(388.921875 0)"/>
      <use xlink:href="#DejaVuSans-53" transform="translate(450.453125 0)"/>
      <use xlink:href="#DejaVuSans-44" transform="translate(513.9375 0)"/>
      <use xlink:href="#DejaVuSans-55" transform="translate(575.21875 0)"/>
      <use xlink:href="#DejaVuSans-57" transform="translate(616.328125 0)"/>
      <use xlink:href="#DejaVuSans-58" transform="translate(655.53125 0)"/>
      <use xlink:href="#DejaVuSans-55" transform="translate(718.90625 0)"/>
      <use xlink:href="#DejaVuSans-48" transform="translate(757.8125 0)"/>
      <use xlink:href="#DejaVuSans-3" transform="translate(819.34375 0)"/>
      <use xlink:href="#DejaVuSans-56" transform="translate(851.125 0)"/>
      <use xlink:href="#DejaVuSans-53" transform="translate(903.21875 0)"/>
      <use xlink:href="#DejaVuSans-48" transform="translate(966.703125 0)"/>
      <use xlink:href="#DejaVuSans-48" transform="translate(1028.234375 0)"/>
      <use xlink:href="#DejaVuSans-47" transform="translate(1089.765625 0)"/>
      <use xlink:href="#DejaVuSans-3" transform="translate(1153.25 0)"/>
      <use xlink:href="#DejaVuSans-b" transform="translate(1185.03125 0)"/>
      <use xlink:href="#DejaVuSans-50" transform="translate(1224.046875 0)"/>
      <use xlink:href="#DejaVuSans-12" transform="translate(1321.453125 0)"/>
      <use xlink:href="#DejaVuSans-56" transform="translate(1355.140625 0)"/>
      <use xlink:href="#DejaVuSans-c" transform="translate(1407.234375 0)"/>
     </g>
    </g>
   </g>
   <g id="line2d_43">
    <path d="M 458.980419 85.352033 
L 752.141925 136.620932 
" clip-path="url(#p7c0f33330c)" style="fill: none; stroke: #111111; stroke-width: 1.5; stroke-linecap: square"/>
    <g clip-path="url(#p7c0f33330c)">
     <use xlink:href="#m90ce492c76" x="458.980419" y="85.352033" style="fill: #111111; stroke: #111111"/>
     <use xlink:href="#m90ce492c76" x="752.141925" y="136.620932" style="fill: #111111; stroke: #111111"/>
    </g>
   </g>
   <g id="line2d_44">
    <path d="M 458.980419 146.303148 
L 752.141925 125.518254 
" clip-path="url(#p7c0f33330c)" style="fill: none; stroke: #b78300; stroke-width: 1.5; stroke-linecap: square"/>
    <g clip-path="url(#p7c0f33330c)">
     <use xlink:href="#m5c2d05dfe3" x="458.980419" y="146.303148" style="fill: #b78300; stroke: #b78300"/>
     <use xlink:href="#m5c2d05dfe3" x="752.141925" y="125.518254" style="fill: #b78300; stroke: #b78300"/>
    </g>
   </g>
   <g id="line2d_45">
    <path d="M 444.322344 266.896436 
L 766.8 266.896436 
" clip-path="url(#p7c0f33330c)" style="fill: none; stroke-dasharray: 5.55,2.4; stroke-dashoffset: 0; stroke: #888888; stroke-width: 1.5"/>
   </g>
   <g id="patch_9">
    <path d="M 444.322344 275.973656 
L 444.322344 76.274812 
" style="fill: none; stroke: #000000; stroke-width: 0.8; stroke-linejoin: miter; stroke-linecap: square"/>
   </g>
   <g id="patch_10">
    <path d="M 766.8 275.973656 
L 766.8 76.274812 
" style="fill: none; stroke: #000000; stroke-width: 0.8; stroke-linejoin: miter; stroke-linecap: square"/>
   </g>
   <g id="patch_11">
    <path d="M 444.322344 275.973656 
L 766.8 275.973656 
" style="fill: none; stroke: #000000; stroke-width: 0.8; stroke-linejoin: miter; stroke-linecap: square"/>
   </g>
   <g id="patch_12">
    <path d="M 444.322344 76.274813 
L 766.8 76.274813 
" style="fill: none; stroke: #000000; stroke-width: 0.8; stroke-linejoin: miter; stroke-linecap: square"/>
   </g>
   <g id="text_27">
    <!-- D12-5: slowest rod departure -->
    <g transform="translate(517.592734 70.274813) scale(0.12 -0.12)">
     <use xlink:href="#DejaVuSans-27"/>
     <use xlink:href="#DejaVuSans-14" transform="translate(77 0)"/>
     <use xlink:href="#DejaVuSans-15" transform="translate(140.625 0)"/>
     <use xlink:href="#DejaVuSans-10" transform="translate(204.25 0)"/>
     <use xlink:href="#DejaVuSans-18" transform="translate(240.328125 0)"/>
     <use xlink:href="#DejaVuSans-1d" transform="translate(303.953125 0)"/>
     <use xlink:href="#DejaVuSans-3" transform="translate(337.640625 0)"/>
     <use xlink:href="#DejaVuSans-56" transform="translate(369.421875 0)"/>
     <use xlink:href="#DejaVuSans-4f" transform="translate(421.515625 0)"/>
     <use xlink:href="#DejaVuSans-52" transform="translate(449.296875 0)"/>
     <use xlink:href="#DejaVuSans-5a" transform="translate(510.484375 0)"/>
     <use xlink:href="#DejaVuSans-48" transform="translate(592.265625 0)"/>
     <use xlink:href="#DejaVuSans-56" transform="translate(653.796875 0)"/>
     <use xlink:href="#DejaVuSans-57" transform="translate(705.890625 0)"/>
     <use xlink:href="#DejaVuSans-3" transform="translate(745.09375 0)"/>
     <use xlink:href="#DejaVuSans-55" transform="translate(776.875 0)"/>
     <use xlink:href="#DejaVuSans-52" transform="translate(815.78125 0)"/>
     <use xlink:href="#DejaVuSans-47" transform="translate(876.96875 0)"/>
     <use xlink:href="#DejaVuSans-3" transform="translate(940.453125 0)"/>
     <use xlink:href="#DejaVuSans-47" transform="translate(972.234375 0)"/>
     <use xlink:href="#DejaVuSans-48" transform="translate(1035.71875 0)"/>
     <use xlink:href="#DejaVuSans-53" transform="translate(1097.25 0)"/>
     <use xlink:href="#DejaVuSans-44" transform="translate(1160.734375 0)"/>
     <use xlink:href="#DejaVuSans-55" transform="translate(1222.015625 0)"/>
     <use xlink:href="#DejaVuSans-57" transform="translate(1263.125 0)"/>
     <use xlink:href="#DejaVuSans-58" transform="translate(1302.328125 0)"/>
     <use xlink:href="#DejaVuSans-55" transform="translate(1365.703125 0)"/>
     <use xlink:href="#DejaVuSans-48" transform="translate(1404.609375 0)"/>
    </g>
   </g>
   <g id="legend_2">
    <g id="patch_13">
     <path d="M 640.64125 195.325172 
L 761.2 195.325172 
Q 762.8 195.325172 762.8 193.725172 
L 762.8 158.523297 
Q 762.8 156.923297 761.2 156.923297 
L 640.64125 156.923297 
Q 639.04125 156.923297 639.04125 158.523297 
L 639.04125 193.725172 
Q 639.04125 195.325172 640.64125 195.325172 
z
" style="fill: #ffffff; opacity: 0.8; stroke: #cccccc; stroke-linejoin: miter"/>
    </g>
    <g id="line2d_46">
     <path d="M 642.24125 163.402047 
L 650.24125 163.402047 
L 658.24125 163.402047 
" style="fill: none; stroke: #111111; stroke-width: 1.5; stroke-linecap: square"/>
     <g>
      <use xlink:href="#m90ce492c76" x="650.24125" y="163.402047" style="fill: #111111; stroke: #111111"/>
     </g>
    </g>
    <g id="text_28">
     <!-- current 50 mm cone -->
     <g transform="translate(664.64125 166.202047) scale(0.08 -0.08)">
      <use xlink:href="#DejaVuSans-46"/>
      <use xlink:href="#DejaVuSans-58" transform="translate(54.984375 0)"/>
      <use xlink:href="#DejaVuSans-55" transform="translate(118.359375 0)"/>
      <use xlink:href="#DejaVuSans-55" transform="translate(157.71875 0)"/>
      <use xlink:href="#DejaVuSans-48" transform="translate(196.625 0)"/>
      <use xlink:href="#DejaVuSans-51" transform="translate(258.15625 0)"/>
      <use xlink:href="#DejaVuSans-57" transform="translate(321.53125 0)"/>
      <use xlink:href="#DejaVuSans-3" transform="translate(360.734375 0)"/>
      <use xlink:href="#DejaVuSans-18" transform="translate(392.515625 0)"/>
      <use xlink:href="#DejaVuSans-13" transform="translate(456.140625 0)"/>
      <use xlink:href="#DejaVuSans-3" transform="translate(519.765625 0)"/>
      <use xlink:href="#DejaVuSans-50" transform="translate(551.546875 0)"/>
      <use xlink:href="#DejaVuSans-50" transform="translate(648.953125 0)"/>
      <use xlink:href="#DejaVuSans-3" transform="translate(746.359375 0)"/>
      <use xlink:href="#DejaVuSans-46" transform="translate(778.140625 0)"/>
      <use xlink:href="#DejaVuSans-52" transform="translate(833.125 0)"/>
      <use xlink:href="#DejaVuSans-51" transform="translate(894.3125 0)"/>
      <use xlink:href="#DejaVuSans-48" transform="translate(957.6875 0)"/>
     </g>
    </g>
    <g id="line2d_47">
     <path d="M 642.24125 175.402672 
L 650.24125 175.402672 
L 658.24125 175.402672 
" style="fill: none; stroke: #b78300; stroke-width: 1.5; stroke-linecap: square"/>
     <g>
      <use xlink:href="#m5c2d05dfe3" x="650.24125" y="175.402672" style="fill: #b78300; stroke: #b78300"/>
     </g>
    </g>
    <g id="text_29">
     <!-- 40 mm ogive candidate -->
     <g transform="translate(664.64125 178.202672) scale(0.08 -0.08)">
      <use xlink:href="#DejaVuSans-17"/>
      <use xlink:href="#DejaVuSans-13" transform="translate(63.625 0)"/>
      <use xlink:href="#DejaVuSans-3" transform="translate(127.25 0)"/>
      <use xlink:href="#DejaVuSans-50" transform="translate(159.03125 0)"/>
      <use xlink:href="#DejaVuSans-50" transform="translate(256.4375 0)"/>
      <use xlink:href="#DejaVuSans-3" transform="translate(353.84375 0)"/>
      <use xlink:href="#DejaVuSans-52" transform="translate(385.625 0)"/>
      <use xlink:href="#DejaVuSans-4a" transform="translate(446.8125 0)"/>
      <use xlink:href="#DejaVuSans-4c" transform="translate(510.296875 0)"/>
      <use xlink:href="#DejaVuSans-59" transform="translate(538.078125 0)"/>
      <use xlink:href="#DejaVuSans-48" transform="translate(597.265625 0)"/>
      <use xlink:href="#DejaVuSans-3" transform="translate(658.796875 0)"/>
      <use xlink:href="#DejaVuSans-46" transform="translate(690.578125 0)"/>
      <use xlink:href="#DejaVuSans-44" transform="translate(745.5625 0)"/>
      <use xlink:href="#DejaVuSans-51" transform="translate(806.84375 0)"/>
      <use xlink:href="#DejaVuSans-47" transform="translate(870.21875 0)"/>
      <use xlink:href="#DejaVuSans-4c" transform="translate(933.703125 0)"/>
      <use xlink:href="#DejaVuSans-47" transform="translate(961.484375 0)"/>
      <use xlink:href="#DejaVuSans-44" transform="translate(1024.96875 0)"/>
      <use xlink:href="#DejaVuSans-57" transform="translate(1086.25 0)"/>
      <use xlink:href="#DejaVuSans-48" transform="translate(1125.453125 0)"/>
     </g>
    </g>
    <g id="line2d_48">
     <path d="M 642.24125 187.403297 
L 650.24125 187.403297 
L 658.24125 187.403297 
" style="fill: none; stroke-dasharray: 5.55,2.4; stroke-dashoffset: 0; stroke: #888888; stroke-width: 1.5"/>
    </g>
    <g id="text_30">
     <!-- 12 m/s screen limit -->
     <g transform="translate(664.64125 190.203297) scale(0.08 -0.08)">
      <use xlink:href="#DejaVuSans-14"/>
      <use xlink:href="#DejaVuSans-15" transform="translate(63.625 0)"/>
      <use xlink:href="#DejaVuSans-3" transform="translate(127.25 0)"/>
      <use xlink:href="#DejaVuSans-50" transform="translate(159.03125 0)"/>
      <use xlink:href="#DejaVuSans-12" transform="translate(256.4375 0)"/>
      <use xlink:href="#DejaVuSans-56" transform="translate(290.125 0)"/>
      <use xlink:href="#DejaVuSans-3" transform="translate(342.21875 0)"/>
      <use xlink:href="#DejaVuSans-56" transform="translate(374 0)"/>
      <use xlink:href="#DejaVuSans-46" transform="translate(426.09375 0)"/>
      <use xlink:href="#DejaVuSans-55" transform="translate(481.078125 0)"/>
      <use xlink:href="#DejaVuSans-48" transform="translate(519.984375 0)"/>
      <use xlink:href="#DejaVuSans-48" transform="translate(581.515625 0)"/>
      <use xlink:href="#DejaVuSans-51" transform="translate(643.046875 0)"/>
      <use xlink:href="#DejaVuSans-3" transform="translate(706.421875 0)"/>
      <use xlink:href="#DejaVuSans-4f" transform="translate(738.203125 0)"/>
      <use xlink:href="#DejaVuSans-4c" transform="translate(765.984375 0)"/>
      <use xlink:href="#DejaVuSans-50" transform="translate(793.765625 0)"/>
      <use xlink:href="#DejaVuSans-4c" transform="translate(891.171875 0)"/>
      <use xlink:href="#DejaVuSans-57" transform="translate(918.953125 0)"/>
     </g>
    </g>
   </g>
  </g>
  <g id="text_31">
   <!-- Upper other-mass estimate, 0/2/4 m/s winds; 500 mm body, current fin collar -->
   <g transform="translate(156.429375 15.886125) scale(0.12 -0.12)">
    <defs>
     <path id="DejaVuSans-38" d="M 556 4666 
L 1191 4666 
L 1191 1831 
Q 1191 1081 1462 751 
Q 1734 422 2344 422 
Q 2950 422 3222 751 
Q 3494 1081 3494 1831 
L 3494 4666 
L 4128 4666 
L 4128 1753 
Q 4128 841 3676 375 
Q 3225 -91 2344 -91 
Q 1459 -91 1007 375 
Q 556 841 556 1753 
L 556 4666 
z
" transform="scale(0.015625)"/>
     <path id="DejaVuSans-f" d="M 750 794 
L 1409 794 
L 1409 256 
L 897 -744 
L 494 -744 
L 750 256 
L 750 794 
z
" transform="scale(0.015625)"/>
     <path id="DejaVuSans-1e" d="M 750 3309 
L 1409 3309 
L 1409 2516 
L 750 2516 
L 750 3309 
z
M 750 794 
L 1409 794 
L 1409 256 
L 897 -744 
L 494 -744 
L 750 256 
L 750 794 
z
" transform="scale(0.015625)"/>
     <path id="DejaVuSans-45" d="M 3116 1747 
Q 3116 2381 2855 2742 
Q 2594 3103 2138 3103 
Q 1681 3103 1420 2742 
Q 1159 2381 1159 1747 
Q 1159 1113 1420 752 
Q 1681 391 2138 391 
Q 2594 391 2855 752 
Q 3116 1113 3116 1747 
z
M 1159 2969 
Q 1341 3281 1617 3432 
Q 1894 3584 2278 3584 
Q 2916 3584 3314 3078 
Q 3713 2572 3713 1747 
Q 3713 922 3314 415 
Q 2916 -91 2278 -91 
Q 1894 -91 1617 61 
Q 1341 213 1159 525 
L 1159 0 
L 581 0 
L 581 4863 
L 1159 4863 
L 1159 2969 
z
" transform="scale(0.015625)"/>
    </defs>
    <use xlink:href="#DejaVuSans-38"/>
    <use xlink:href="#DejaVuSans-53" transform="translate(73.1875 0)"/>
    <use xlink:href="#DejaVuSans-53" transform="translate(136.671875 0)"/>
    <use xlink:href="#DejaVuSans-48" transform="translate(200.15625 0)"/>
    <use xlink:href="#DejaVuSans-55" transform="translate(261.6875 0)"/>
    <use xlink:href="#DejaVuSans-3" transform="translate(302.796875 0)"/>
    <use xlink:href="#DejaVuSans-52" transform="translate(334.578125 0)"/>
    <use xlink:href="#DejaVuSans-57" transform="translate(395.765625 0)"/>
    <use xlink:href="#DejaVuSans-4b" transform="translate(434.96875 0)"/>
    <use xlink:href="#DejaVuSans-48" transform="translate(498.34375 0)"/>
    <use xlink:href="#DejaVuSans-55" transform="translate(559.875 0)"/>
    <use xlink:href="#DejaVuSans-10" transform="translate(594.59375 0)"/>
    <use xlink:href="#DejaVuSans-50" transform="translate(630.671875 0)"/>
    <use xlink:href="#DejaVuSans-44" transform="translate(728.078125 0)"/>
    <use xlink:href="#DejaVuSans-56" transform="translate(789.359375 0)"/>
    <use xlink:href="#DejaVuSans-56" transform="translate(841.453125 0)"/>
    <use xlink:href="#DejaVuSans-3" transform="translate(893.546875 0)"/>
    <use xlink:href="#DejaVuSans-48" transform="translate(925.328125 0)"/>
    <use xlink:href="#DejaVuSans-56" transform="translate(986.859375 0)"/>
    <use xlink:href="#DejaVuSans-57" transform="translate(1038.953125 0)"/>
    <use xlink:href="#DejaVuSans-4c" transform="translate(1078.15625 0)"/>
    <use xlink:href="#DejaVuSans-50" transform="translate(1105.9375 0)"/>
    <use xlink:href="#DejaVuSans-44" transform="translate(1203.34375 0)"/>
    <use xlink:href="#DejaVuSans-57" transform="translate(1264.625 0)"/>
    <use xlink:href="#DejaVuSans-48" transform="translate(1303.828125 0)"/>
    <use xlink:href="#DejaVuSans-f" transform="translate(1365.359375 0)"/>
    <use xlink:href="#DejaVuSans-3" transform="translate(1397.140625 0)"/>
    <use xlink:href="#DejaVuSans-13" transform="translate(1428.921875 0)"/>
    <use xlink:href="#DejaVuSans-12" transform="translate(1492.546875 0)"/>
    <use xlink:href="#DejaVuSans-15" transform="translate(1526.234375 0)"/>
    <use xlink:href="#DejaVuSans-12" transform="translate(1589.859375 0)"/>
    <use xlink:href="#DejaVuSans-17" transform="translate(1623.546875 0)"/>
    <use xlink:href="#DejaVuSans-3" transform="translate(1687.171875 0)"/>
    <use xlink:href="#DejaVuSans-50" transform="translate(1718.953125 0)"/>
    <use xlink:href="#DejaVuSans-12" transform="translate(1816.359375 0)"/>
    <use xlink:href="#DejaVuSans-56" transform="translate(1850.046875 0)"/>
    <use xlink:href="#DejaVuSans-3" transform="translate(1902.140625 0)"/>
    <use xlink:href="#DejaVuSans-5a" transform="translate(1933.921875 0)"/>
    <use xlink:href="#DejaVuSans-4c" transform="translate(2015.703125 0)"/>
    <use xlink:href="#DejaVuSans-51" transform="translate(2043.484375 0)"/>
    <use xlink:href="#DejaVuSans-47" transform="translate(2106.859375 0)"/>
    <use xlink:href="#DejaVuSans-56" transform="translate(2170.34375 0)"/>
    <use xlink:href="#DejaVuSans-1e" transform="translate(2222.4375 0)"/>
    <use xlink:href="#DejaVuSans-3" transform="translate(2256.125 0)"/>
    <use xlink:href="#DejaVuSans-18" transform="translate(2287.90625 0)"/>
    <use xlink:href="#DejaVuSans-13" transform="translate(2351.53125 0)"/>
    <use xlink:href="#DejaVuSans-13" transform="translate(2415.15625 0)"/>
    <use xlink:href="#DejaVuSans-3" transform="translate(2478.78125 0)"/>
    <use xlink:href="#DejaVuSans-50" transform="translate(2510.5625 0)"/>
    <use xlink:href="#DejaVuSans-50" transform="translate(2607.96875 0)"/>
    <use xlink:href="#DejaVuSans-3" transform="translate(2705.375 0)"/>
    <use xlink:href="#DejaVuSans-45" transform="translate(2737.15625 0)"/>
    <use xlink:href="#DejaVuSans-52" transform="translate(2800.640625 0)"/>
    <use xlink:href="#DejaVuSans-47" transform="translate(2861.828125 0)"/>
    <use xlink:href="#DejaVuSans-5c" transform="translate(2925.3125 0)"/>
    <use xlink:href="#DejaVuSans-f" transform="translate(2984.5 0)"/>
    <use xlink:href="#DejaVuSans-3" transform="translate(3016.28125 0)"/>
    <use xlink:href="#DejaVuSans-46" transform="translate(3048.0625 0)"/>
    <use xlink:href="#DejaVuSans-58" transform="translate(3103.046875 0)"/>
    <use xlink:href="#DejaVuSans-55" transform="translate(3166.421875 0)"/>
    <use xlink:href="#DejaVuSans-55" transform="translate(3205.78125 0)"/>
    <use xlink:href="#DejaVuSans-48" transform="translate(3244.6875 0)"/>
    <use xlink:href="#DejaVuSans-51" transform="translate(3306.21875 0)"/>
    <use xlink:href="#DejaVuSans-57" transform="translate(3369.59375 0)"/>
    <use xlink:href="#DejaVuSans-3" transform="translate(3408.796875 0)"/>
    <use xlink:href="#DejaVuSans-13af" transform="translate(3440.578125 0)"/>
    <use xlink:href="#DejaVuSans-51" transform="translate(3503.5625 0)"/>
    <use xlink:href="#DejaVuSans-3" transform="translate(3566.9375 0)"/>
    <use xlink:href="#DejaVuSans-46" transform="translate(3598.71875 0)"/>
    <use xlink:href="#DejaVuSans-52" transform="translate(3653.703125 0)"/>
    <use xlink:href="#DejaVuSans-4f" transform="translate(3714.890625 0)"/>
    <use xlink:href="#DejaVuSans-4f" transform="translate(3742.671875 0)"/>
    <use xlink:href="#DejaVuSans-44" transform="translate(3770.453125 0)"/>
    <use xlink:href="#DejaVuSans-55" transform="translate(3831.734375 0)"/>
   </g>
  </g>
  <g id="text_32">
   <!-- These are narrow modeled margins. Actual assembly mass/CG, chute behavior and effective guide travel remain unverified. -->
   <g transform="translate(139.9575 333.324) scale(0.08 -0.08)">
    <defs>
     <path id="DejaVuSans-37" d="M -19 4666 
L 3928 4666 
L 3928 4134 
L 2272 4134 
L 2272 0 
L 1638 0 
L 1638 4134 
L -19 4134 
L -19 4666 
z
" transform="scale(0.015625)"/>
     <path id="DejaVuSans-24" d="M 2188 4044 
L 1331 1722 
L 3047 1722 
L 2188 4044 
z
M 1831 4666 
L 2547 4666 
L 4325 0 
L 3669 0 
L 3244 1197 
L 1141 1197 
L 716 0 
L 50 0 
L 1831 4666 
z
" transform="scale(0.015625)"/>
     <path id="DejaVuSans-26" d="M 4122 4306 
L 4122 3641 
Q 3803 3938 3442 4084 
Q 3081 4231 2675 4231 
Q 1875 4231 1450 3742 
Q 1025 3253 1025 2328 
Q 1025 1406 1450 917 
Q 1875 428 2675 428 
Q 3081 428 3442 575 
Q 3803 722 4122 1019 
L 4122 359 
Q 3791 134 3420 21 
Q 3050 -91 2638 -91 
Q 1578 -91 968 557 
Q 359 1206 359 2328 
Q 359 3453 968 4101 
Q 1578 4750 2638 4750 
Q 3056 4750 3426 4639 
Q 3797 4528 4122 4306 
z
" transform="scale(0.015625)"/>
     <path id="DejaVuSans-13ae" d="M 4531 4863 
L 4531 4384 
L 3981 4384 
Q 3672 4384 3551 4259 
Q 3431 4134 3431 3809 
L 3431 3500 
L 4378 3500 
L 4378 3053 
L 3431 3053 
L 3431 0 
L 2853 0 
L 2853 3053 
L 1275 3053 
L 1275 0 
L 697 0 
L 697 3053 
L 147 3053 
L 147 3500 
L 697 3500 
L 697 3744 
Q 697 4328 969 4595 
Q 1241 4863 1831 4863 
L 2375 4863 
L 2375 4384 
L 1825 4384 
Q 1516 4384 1394 4259 
Q 1275 4134 1275 3809 
L 1275 3500 
L 2853 3500 
L 2853 3744 
Q 2853 4328 3125 4595 
Q 3397 4863 3988 4863 
L 4531 4863 
z
" transform="scale(0.015625)"/>
    </defs>
    <use xlink:href="#DejaVuSans-37"/>
    <use xlink:href="#DejaVuSans-4b" transform="translate(61.078125 0)"/>
    <use xlink:href="#DejaVuSans-48" transform="translate(124.453125 0)"/>
    <use xlink:href="#DejaVuSans-56" transform="translate(185.984375 0)"/>
    <use xlink:href="#DejaVuSans-48" transform="translate(238.078125 0)"/>
    <use xlink:href="#DejaVuSans-3" transform="translate(299.609375 0)"/>
    <use xlink:href="#DejaVuSans-44" transform="translate(331.390625 0)"/>
    <use xlink:href="#DejaVuSans-55" transform="translate(392.671875 0)"/>
    <use xlink:href="#DejaVuSans-48" transform="translate(431.578125 0)"/>
    <use xlink:href="#DejaVuSans-3" transform="translate(493.109375 0)"/>
    <use xlink:href="#DejaVuSans-51" transform="translate(524.890625 0)"/>
    <use xlink:href="#DejaVuSans-44" transform="translate(588.265625 0)"/>
    <use xlink:href="#DejaVuSans-55" transform="translate(649.546875 0)"/>
    <use xlink:href="#DejaVuSans-55" transform="translate(688.90625 0)"/>
    <use xlink:href="#DejaVuSans-52" transform="translate(727.8125 0)"/>
    <use xlink:href="#DejaVuSans-5a" transform="translate(789 0)"/>
    <use xlink:href="#DejaVuSans-3" transform="translate(870.78125 0)"/>
    <use xlink:href="#DejaVuSans-50" transform="translate(902.5625 0)"/>
    <use xlink:href="#DejaVuSans-52" transform="translate(999.96875 0)"/>
    <use xlink:href="#DejaVuSans-47" transform="translate(1061.15625 0)"/>
    <use xlink:href="#DejaVuSans-48" transform="translate(1124.640625 0)"/>
    <use xlink:href="#DejaVuSans-4f" transform="translate(1186.171875 0)"/>
    <use xlink:href="#DejaVuSans-48" transform="translate(1213.953125 0)"/>
    <use xlink:href="#DejaVuSans-47" transform="translate(1275.484375 0)"/>
    <use xlink:href="#DejaVuSans-3" transform="translate(1338.96875 0)"/>
    <use xlink:href="#DejaVuSans-50" transform="translate(1370.75 0)"/>
    <use xlink:href="#DejaVuSans-44" transform="translate(1468.15625 0)"/>
    <use xlink:href="#DejaVuSans-55" transform="translate(1529.4375 0)"/>
    <use xlink:href="#DejaVuSans-4a" transform="translate(1568.796875 0)"/>
    <use xlink:href="#DejaVuSans-4c" transform="translate(1632.28125 0)"/>
    <use xlink:href="#DejaVuSans-51" transform="translate(1660.0625 0)"/>
    <use xlink:href="#DejaVuSans-56" transform="translate(1723.4375 0)"/>
    <use xlink:href="#DejaVuSans-11" transform="translate(1775.53125 0)"/>
    <use xlink:href="#DejaVuSans-3" transform="translate(1807.3125 0)"/>
    <use xlink:href="#DejaVuSans-24" transform="translate(1839.09375 0)"/>
    <use xlink:href="#DejaVuSans-46" transform="translate(1905.75 0)"/>
    <use xlink:href="#DejaVuSans-57" transform="translate(1960.734375 0)"/>
    <use xlink:href="#DejaVuSans-58" transform="translate(1999.9375 0)"/>
    <use xlink:href="#DejaVuSans-44" transform="translate(2063.3125 0)"/>
    <use xlink:href="#DejaVuSans-4f" transform="translate(2124.59375 0)"/>
    <use xlink:href="#DejaVuSans-3" transform="translate(2152.375 0)"/>
    <use xlink:href="#DejaVuSans-44" transform="translate(2184.15625 0)"/>
    <use xlink:href="#DejaVuSans-56" transform="translate(2245.4375 0)"/>
    <use xlink:href="#DejaVuSans-56" transform="translate(2297.53125 0)"/>
    <use xlink:href="#DejaVuSans-48" transform="translate(2349.625 0)"/>
    <use xlink:href="#DejaVuSans-50" transform="translate(2411.15625 0)"/>
    <use xlink:href="#DejaVuSans-45" transform="translate(2508.5625 0)"/>
    <use xlink:href="#DejaVuSans-4f" transform="translate(2572.046875 0)"/>
    <use xlink:href="#DejaVuSans-5c" transform="translate(2599.828125 0)"/>
    <use xlink:href="#DejaVuSans-3" transform="translate(2659.015625 0)"/>
    <use xlink:href="#DejaVuSans-50" transform="translate(2690.796875 0)"/>
    <use xlink:href="#DejaVuSans-44" transform="translate(2788.203125 0)"/>
    <use xlink:href="#DejaVuSans-56" transform="translate(2849.484375 0)"/>
    <use xlink:href="#DejaVuSans-56" transform="translate(2901.578125 0)"/>
    <use xlink:href="#DejaVuSans-12" transform="translate(2953.671875 0)"/>
    <use xlink:href="#DejaVuSans-26" transform="translate(2987.359375 0)"/>
    <use xlink:href="#DejaVuSans-2a" transform="translate(3057.1875 0)"/>
    <use xlink:href="#DejaVuSans-f" transform="translate(3134.671875 0)"/>
    <use xlink:href="#DejaVuSans-3" transform="translate(3166.453125 0)"/>
    <use xlink:href="#DejaVuSans-46" transform="translate(3198.234375 0)"/>
    <use xlink:href="#DejaVuSans-4b" transform="translate(3253.21875 0)"/>
    <use xlink:href="#DejaVuSans-58" transform="translate(3316.59375 0)"/>
    <use xlink:href="#DejaVuSans-57" transform="translate(3379.96875 0)"/>
    <use xlink:href="#DejaVuSans-48" transform="translate(3419.171875 0)"/>
    <use xlink:href="#DejaVuSans-3" transform="translate(3480.703125 0)"/>
    <use xlink:href="#DejaVuSans-45" transform="translate(3512.484375 0)"/>
    <use xlink:href="#DejaVuSans-48" transform="translate(3575.96875 0)"/>
    <use xlink:href="#DejaVuSans-4b" transform="translate(3637.5 0)"/>
    <use xlink:href="#DejaVuSans-44" transform="translate(3700.875 0)"/>
    <use xlink:href="#DejaVuSans-59" transform="translate(3762.15625 0)"/>
    <use xlink:href="#DejaVuSans-4c" transform="translate(3821.34375 0)"/>
    <use xlink:href="#DejaVuSans-52" transform="translate(3849.125 0)"/>
    <use xlink:href="#DejaVuSans-55" transform="translate(3910.3125 0)"/>
    <use xlink:href="#DejaVuSans-3" transform="translate(3951.421875 0)"/>
    <use xlink:href="#DejaVuSans-44" transform="translate(3983.203125 0)"/>
    <use xlink:href="#DejaVuSans-51" transform="translate(4044.484375 0)"/>
    <use xlink:href="#DejaVuSans-47" transform="translate(4107.859375 0)"/>
    <use xlink:href="#DejaVuSans-3" transform="translate(4171.34375 0)"/>
    <use xlink:href="#DejaVuSans-48" transform="translate(4203.125 0)"/>
    <use xlink:href="#DejaVuSans-13ae" transform="translate(4264.65625 0)"/>
    <use xlink:href="#DejaVuSans-48" transform="translate(4333.546875 0)"/>
    <use xlink:href="#DejaVuSans-46" transform="translate(4395.078125 0)"/>
    <use xlink:href="#DejaVuSans-57" transform="translate(4450.0625 0)"/>
    <use xlink:href="#DejaVuSans-4c" transform="translate(4489.265625 0)"/>
    <use xlink:href="#DejaVuSans-59" transform="translate(4517.046875 0)"/>
    <use xlink:href="#DejaVuSans-48" transform="translate(4576.234375 0)"/>
    <use xlink:href="#DejaVuSans-3" transform="translate(4637.765625 0)"/>
    <use xlink:href="#DejaVuSans-4a" transform="translate(4669.546875 0)"/>
    <use xlink:href="#DejaVuSans-58" transform="translate(4733.03125 0)"/>
    <use xlink:href="#DejaVuSans-4c" transform="translate(4796.40625 0)"/>
    <use xlink:href="#DejaVuSans-47" transform="translate(4824.1875 0)"/>
    <use xlink:href="#DejaVuSans-48" transform="translate(4887.671875 0)"/>
    <use xlink:href="#DejaVuSans-3" transform="translate(4949.203125 0)"/>
    <use xlink:href="#DejaVuSans-57" transform="translate(4980.984375 0)"/>
    <use xlink:href="#DejaVuSans-55" transform="translate(5020.1875 0)"/>
    <use xlink:href="#DejaVuSans-44" transform="translate(5061.296875 0)"/>
    <use xlink:href="#DejaVuSans-59" transform="translate(5122.578125 0)"/>
    <use xlink:href="#DejaVuSans-48" transform="translate(5181.765625 0)"/>
    <use xlink:href="#DejaVuSans-4f" transform="translate(5243.296875 0)"/>
    <use xlink:href="#DejaVuSans-3" transform="translate(5271.078125 0)"/>
    <use xlink:href="#DejaVuSans-55" transform="translate(5302.859375 0)"/>
    <use xlink:href="#DejaVuSans-48" transform="translate(5341.765625 0)"/>
    <use xlink:href="#DejaVuSans-50" transform="translate(5403.296875 0)"/>
    <use xlink:href="#DejaVuSans-44" transform="translate(5500.703125 0)"/>
    <use xlink:href="#DejaVuSans-4c" transform="translate(5561.984375 0)"/>
    <use xlink:href="#DejaVuSans-51" transform="translate(5589.765625 0)"/>
    <use xlink:href="#DejaVuSans-3" transform="translate(5653.140625 0)"/>
    <use xlink:href="#DejaVuSans-58" transform="translate(5684.921875 0)"/>
    <use xlink:href="#DejaVuSans-51" transform="translate(5748.296875 0)"/>
    <use xlink:href="#DejaVuSans-59" transform="translate(5811.671875 0)"/>
    <use xlink:href="#DejaVuSans-48" transform="translate(5870.859375 0)"/>
    <use xlink:href="#DejaVuSans-55" transform="translate(5932.390625 0)"/>
    <use xlink:href="#DejaVuSans-4c" transform="translate(5973.5 0)"/>
    <use xlink:href="#DejaVuSans-13af" transform="translate(6001.28125 0)"/>
    <use xlink:href="#DejaVuSans-48" transform="translate(6064.265625 0)"/>
    <use xlink:href="#DejaVuSans-47" transform="translate(6125.796875 0)"/>
    <use xlink:href="#DejaVuSans-11" transform="translate(6189.28125 0)"/>
   </g>
  </g>
 </g>
 <defs>
  <clipPath id="p40b6695021">
   <rect x="67.402344" y="76.274813" width="322.477656" height="199.698844"/>
  </clipPath>
  <clipPath id="p7c0f33330c">
   <rect x="444.322344" y="76.274813" width="322.477656" height="199.698844"/>
  </clipPath>
 </defs>
</svg>
