<svg xmlns="http://www.w3.org/2000/svg" viewBox="0 0 1050 430">
<rect width="1050" height="430" fill="#ffffff"/>
<style>text{font:14px sans-serif;fill:#152238} .small{font-size:12px}</style>
<text x="20" y="25">AVIONICS PACKAGING — nominal dimensions, not measured hardware</text>
<text x="30" y="47">X–Z: transverse width / axial position</text>
<rect x="35" y="54.25" width="435" height="121.5" fill="none" stroke="#555"/>
<rect x="113.0" y="88.0" width="73.5" height="54" fill="#0072b2" fill-opacity=".35" stroke="#0072b2"/>
<text class="small" x="149.75" y="119" text-anchor="middle">1</text>
<rect x="120.5" y="88.0" width="63" height="54" fill="#e69f00" fill-opacity=".35" stroke="#e69f00"/>
<text class="small" x="152" y="119" text-anchor="middle">2</text>
<rect x="59.0" y="76.0" width="24" height="78" fill="#009e73" fill-opacity=".35" stroke="#009e73"/>
<text class="small" x="71" y="119" text-anchor="middle">3</text>
<rect x="211.97" y="83.875" width="84.06" height="62.25" fill="#cc79a7" fill-opacity=".35" stroke="#cc79a7"/>
<text class="small" x="254" y="119" text-anchor="middle">4</text>
<rect x="215.89999999999998" y="88.33" width="76.19999999999999" height="53.34" fill="#56b4e9" fill-opacity=".35" stroke="#56b4e9"/>
<text class="small" x="254" y="119" text-anchor="middle">5</text>
<rect x="317.0" y="103.0" width="30" height="24" fill="#d55e00" fill-opacity=".35" stroke="#d55e00"/>
<text class="small" x="332" y="119" text-anchor="middle">6</text>
<rect x="95.0" y="64.0" width="270" height="12" fill="#666666" fill-opacity=".35" stroke="#666666"/>
<text class="small" x="230" y="74" text-anchor="middle">7</text>
<rect x="101.0" y="154.0" width="180" height="12" fill="#333333" fill-opacity=".35" stroke="#333333"/>
<text class="small" x="191" y="164" text-anchor="middle">8</text>
<path d="M410 52v126" stroke="#b00020" stroke-dasharray="5 3"/>
<text class="small" x="35" y="195">Shoulder 0 mm → aft bulkhead 145 mm; dashed line: ports at 125 mm</text>
<text x="30" y="212">Y–Z: stack thickness / axial position</text>
<rect x="35" y="219.25" width="435" height="121.5" fill="none" stroke="#555"/>
<rect x="113.0" y="287.5" width="73.5" height="15" fill="#0072b2" fill-opacity=".35" stroke="#0072b2"/>
<text class="small" x="149.75" y="299" text-anchor="middle">1</text>
<rect x="120.5" y="263.5" width="63" height="15" fill="#e69f00" fill-opacity=".35" stroke="#e69f00"/>
<text class="small" x="152" y="275" text-anchor="middle">2</text>
<rect x="59.0" y="241.0" width="24" height="78" fill="#009e73" fill-opacity=".35" stroke="#009e73"/>
<text class="small" x="71" y="284" text-anchor="middle">3</text>
<rect x="211.97" y="286.3" width="84.06" height="17.4" fill="#cc79a7" fill-opacity=".35" stroke="#cc79a7"/>
<text class="small" x="254" y="299" text-anchor="middle">4</text>
<rect x="215.89999999999998" y="263.5" width="76.19999999999999" height="15" fill="#56b4e9" fill-opacity=".35" stroke="#56b4e9"/>
<text class="small" x="254" y="275" text-anchor="middle">5</text>
<rect x="317.0" y="271.0" width="30" height="18" fill="#d55e00" fill-opacity=".35" stroke="#d55e00"/>
<text class="small" x="332" y="284" text-anchor="middle">6</text>
<rect x="95.0" y="265.0" width="270" height="30" fill="#666666" fill-opacity=".35" stroke="#666666"/>
<text class="small" x="230" y="284" text-anchor="middle">7</text>
<rect x="101.0" y="265.0" width="180" height="30" fill="#333333" fill-opacity=".35" stroke="#333333"/>
<text class="small" x="191" y="284" text-anchor="middle">8</text>
<path d="M410 217v126" stroke="#b00020" stroke-dasharray="5 3"/>
<text class="small" x="35" y="360">Shoulder 0 mm → aft bulkhead 145 mm; dashed line: ports at 125 mm</text>
<text x="510" y="95">1. xiao-sense — 2.50 g</text>
<text x="510" y="125">2. l76k — 3.00 g</text>
<text x="510" y="155">3. antenna — 5.00 g</text>
<text x="510" y="185">4. battery — 4.65 g</text>
<text x="510" y="215">5. barometer — 1.50 g</text>
<text x="510" y="245">6. battery-connector — 0.70 g</text>
<text x="510" y="275">7. harness — 1.80 g</text>
<text x="510" y="305">8. retention — 1.50 g</text>
<text x="510" y="345">Colors show component keepouts, not physical filled blocks.</text>
<text x="510" y="370">3D detail and insertion checks are separate CAD artifacts.</text>
<text x="30" y="415">Cable bends, restraint compression, seal friction and delivered antenna size need physical checks.</text>
</svg>
